<svg xmlns="http://www.w3.org/2000/svg" viewBox="0 0 522.54 637.19"><g id="Layer_2" data-name="Layer 2"><g id="Layer_1-2" data-name="Layer 1"><path d="M345.7,609A302.33,302.33,0,0,0,449,582.78c6.12-2.76,12.2-7.3,11.3-14.86-.81-6.75-8.15-7.92-12.84-11.5-8.4-6.39-21.67-4.83-25.91-10.13-12.63-15.78-30.15-8.39-44.59-13.73-21.22-7.86-22.42,11.85-27.64,23.19-4.78,10.39-9.14,17.71-21.73,20-14.39,2.58-28,9.46-42.33,12.32-16.5,3.27-33.82,7.29-50.17,5.48-36.32-4-73.1-8-106.58-24.88-2.1-1-3.46-3.58-5.16-5.43,2.16,1,4.29,2.11,6.5,3,3.72,1.54,7.48,3,11.22,4.43-3.14-1.78-6.43-3.36-9.37-5.43-1.95-1.38-3.39-3.47-5.06-5.24,2.79,1.73,5.37,4.13,8.41,5.09,43.27,13.66,87.34,20.5,132.8,15.09a17.56,17.56,0,0,1,4.26.56,13.61,13.61,0,0,0-3.37,1.45,20.85,20.85,0,0,0-2.76,3.26c1.58.13,3.23.63,4.72.33,4-.81,8-1.95,12-2.95a29.65,29.65,0,0,1-3.64.12c-.47,0-.9-.63-1.35-1,1-1.25,1.83-3.45,3-3.6,10.14-1.33,21.07-.36,30.34-3.83,16.09-6,31.11-14.78,35.44-33.88.18-.83,2-1.18,2.61-2.06a2.57,2.57,0,0,0-.84-2.32c-7.43-3.86-13,1.78-19.22,4a214.86,214.86,0,0,1-67.81,12.27c-43,.92-85.7-3-127.58-13.49-7.06-1.77-14-3.88-21-5.89-.49-.14-.83-.81-1.25-1.23,1.24-.21,2.61-.86,3.7-.55,37,10.46,74.89,15.6,113.25,16.79,25.6.81,51.2-.42,76.18-7,27.57-7.25,55.47-13,67.66-44.89,7.06-18.43,13.57-37,20.47-55.42,12.13-32.33,13.94-65.81,17.73-99.22.37-3.27-.71-6.71-1.12-10.07-3.76,2-7.43,4.14-11.29,5.9-43.35,19.75-89.2,28.43-136.51,30.8-66.82,3.36-130.9-9.54-193.55-31.68-4.69-1.66-9.18-13.69-15.51-1.61-.66-1.29-2.19-2.93-1.84-3.81,2.13-5.24,3.8-14,7.24-14.81,18.87-4.51,38.22-7,57.4-10.29,10.51-1.77,21-3.93,31.52-5.31,5.94-.78,12.05-.28,18.08-.43,12.24-.3,24.65.46,36.65-1.41,6.47-1,2.66-8.82,2.07-12.78-4.57-30.94-17.66-58.76-31.84-86.37-8.94-17.42-8.33-36.24-.2-54.39a9.45,9.45,0,0,1,2-2.15c.08.54.41,1.2.22,1.62-14.09,31.57,4.71,56.68,16.65,82.94,7.64,16.79,13.32,34,18.37,51.74,1.82,6.38-2,12.07,1.34,17.52.23.38.44.77.67,1.15.23-.36.63-.71.65-1.08.15-2.75.22-5.51.31-8.27l2.13,16.43c-.75-1.22-1.49-2.44-2.23-3.66-.27.59-.81,1.18-.8,1.76q.24,12.19.67,24.4s1.58.2,1.75-.09a160,160,0,0,0,12.69-25.47c6.69-17.44,5.41-34.49,1.85-51.57-1.72-8.22-5.34-16.25-9.12-24.23-14.42-30.44-35.22-60-22.72-96.92.95-2.82,2.78-5.35,4.2-8-.5,2.9-1.08,5.79-1.48,8.7-.51,3.75-.87,7.53-1.29,11.29.89-3.29,1.7-6.6,2.73-9.84.26-.8,1.25-1.37,1.9-2-.27,1.45-.58,2.91-.81,4.37-5,31.86,8.94,58.15,23.71,84.72a120.86,120.86,0,0,1,15,56.53c0,2.09-.88,4.19-1.36,6.29-1.07-2.06-2.93-4.07-3.06-6.2-.49-7.62-.16-15.29-.66-22.91-.13-1.91-2.25-3.68-3.46-5.51.07,1.78-.28,3.7.27,5.31,4.45,13.08,2.43,26.28,1,39.49-.26,2.33-.23,4.7-.34,7.05.88-2.38,1.79-4.75,2.63-7.15.5-1.41.89-2.86,1.33-4.28,1,1,2.94,2.32,2.75,3.06-5.18,20.63,12.11,8.92,15.77,8.78,36.38-1.36,71.91,4.75,107.59,9.81a9.12,9.12,0,0,1,2.47,1.21,20.18,20.18,0,0,1-2.68.22q-15.48-.69-31-1.45c9.85,1.26,19.7,2.49,29.54,3.82a14,14,0,0,1,3.3,1.37c-1.31,0-2.63.17-3.94.09-39.8-2.31-79.6-4.46-119.37-7.15-5.88-.39-6.4,2.82-7.55,6.54,2.16.27,4.36.93,6.48.76,38.25-3.22,75.78,3.92,113.52,7.87,1.44.15,2.77,1.44,4.14,2.2a26.7,26.7,0,0,1-4.15.44c-6.36-.3-12.72-.73-19.08-1.1,6.43,1.12,12.87,2.2,19.28,3.41a54.23,54.23,0,0,1,5.49,1.57c-1.93-.08-3.87-.13-5.8-.25q-55.93-3.43-111.87-6.9c-1.08-.07-2.15-.32-3.22-.48a17.61,17.61,0,0,1,2.36-.86c3.24-.67,6.5-1.27,9.74-1.89-3.25,0-6.53-.2-9.77,0-11.36.82-15.91,9.19-21.18,17.79-4.32,7-11.13,12.51-16.68,18.82-2.14,2.44-3.84,5.26-5.74,7.9,3.31.34,6.63.81,9.95,1,60.57,3.16,120-1.51,176.45-26a20.9,20.9,0,0,0,3.17-2.09c-1.22.3-2.46.54-3.66.91q-28.26,8.76-56.51,17.52a13.14,13.14,0,0,1-3.15.17,11.14,11.14,0,0,1,2.8-1.64c24.84-5.84,49-13.56,72-24.8a15.36,15.36,0,0,1,3.07-.79c-.86.74-1.7,1.51-2.58,2.23-1.07.88-2.17,1.74-3.26,2.6,1.25-.22,2.75-.07,3.73-.71,25.44-16.45,13.89,7,16,15.07,1.16,4.37.89,9.11,1.27,13.69,2.65-3.78,5-7.78,8-11.29,12.13-14.35,25-27.67,45.81-27.69,15.26,0,29.29,3.76,36,18.89,7,16,7.61,33,2.69,49.82-3.46,11.85-6.39,24.1-11.8,35.06-4.38,8.87-12.69,15.7-18.23,24.11C467.47,465.4,452.8,476.28,436,486.8c-17.11,10.74-35.4,11.11-53.25,15.68-4.24,1.09-6.51,2.76-7.54,6.66,1.24-.29,2.58-1,3.72-.82q44.3,8.76,88.56,17.74a12.51,12.51,0,0,1,2.9,1.41,5.38,5.38,0,0,1-1.35.2c-2.73-.35-5.46-.75-8.18-1.14,3,1,6,2.8,9.12,3,19.72,1.14,33.67,12.88,46.49,25.85,8.26,8.36,7.52,18,.94,28.12-13.05,20-34.27,22.87-54.79,27.54-16.11,3.67-32.21,7.43-48.34,11-14.54,3.22-29,7.24-43.7,9.16-51.08,6.68-102.48,5.72-153.87,6-46.18.23-92.17-.84-137.66-9.08C55.94,623.89,32,623.31,9.93,613.91a12.14,12.14,0,0,1-2.17-1.52l2.37.4c12.24,2.3,24.49,4.62,36.75,6.86a15.73,15.73,0,0,0,3.67-.17A21,21,0,0,0,47,618c-12.33-2.7-24.68-5.31-37-8a8.45,8.45,0,0,1-1.93-1,10.17,10.17,0,0,1,2.33-.07c71.09,14.16,142.84,22,215.36,20.67,38.38-.69,76.73-3.2,115.09-4.85a15.63,15.63,0,0,1,3.26.54c-5,1.52-10,4-15.17,4.4-17.55,1.47-35.17,2.23-52.77,3.28-1.31.08-2.61.26-3.92.4,1.54.42,3.14,1.33,4.64,1.19q60.88-5.62,121.76-11.46a15.45,15.45,0,0,0,2.36-.61,7.61,7.61,0,0,0-2.47-.57C386,623.42,373.44,625,360.9,626.5a44.35,44.35,0,0,1-5.76-.06c2-1.48,3.87-4,6-4.27,24-2.68,49.61-.62,71.59-8.6,23.94-8.69,50.89-12.26,71.29-29.17,16.11-13.35,13-23.95-6.18-32.9-6.94-3.24-13.62-7.78-21.05-10.74-5.14-2-9.67-5.55-14.73-7.86-14.12-6.46-29-8.82-44.56-9.52-11.6-.53-23-4.68-34.58-7-2.53-.5-5.25,0-7.89.05,2.34.55,4.7,1,7,1.69,2.77.8,5.49,1.75,8.23,2.64-3.48,0-7-.23-10.45-.08-3.29.15-6.56.66-9.83,1a58.5,58.5,0,0,0,7.54,2.89c3.8.91,7.72,1.34,11.59,2-4.64-.27-9.28-.51-13.91-.83-2.11-.14-4.22-.42-6.32-.64,0,.24,0,.69.07.7,1.94.38,3.89.77,5.85,1.07,16.18,2.47,32.36,4.91,48.54,7.42a7.64,7.64,0,0,1,2.17,1.16c-.26.16-.52.45-.78.45-2.18,0-4.35,0-6.52,0,3.36.66,6.71,1.44,10.09,1.95C445,540.32,457.63,549.48,467,562.7c7.68,10.8-1.94,21.22-7.66,25.68-10,7.79-23.56,11.86-36.23,15.17-14.18,3.71-29.1,4.52-43.57,7.23-8.49,1.6-16.63,5.73-25.11,6.4-9.34.74-18.49,2.12-27.7,3.26a465.14,465.14,0,0,1-70.29,3.41c-10.88-.33-21.62,1.51-32.17.74C179.82,621.33,135,622,91,612.69c-10-2.14-20.21-3.56-30.27-5.52-2.45-.48-4.75-1.77-7.11-2.69a57.69,57.69,0,0,1,7.44,0c7.72,1,15.41,2.2,23.11,3.33-7.43-1.64-14.87-3.21-22.27-5-3.82-.91-7.55-2.17-11.32-3.27,4,.57,7.92,1.25,11.9,1.68,33.38,3.6,66.82,6.67,100.13,10.82,51.13,6.37,102.11,2.26,153.14-.89,2-.12,4,.62,5.95,1-1.85.36-3.69.85-5.56,1-16.26,1.69-32.54,3.31-48.8,5-.55,0-1,.77-1.53,1.18a17.86,17.86,0,0,0,3.39.33q49-4.31,97.92-8.69a9.8,9.8,0,0,0,1.85-.56,6.06,6.06,0,0,0-2-.62c-7.47.6-14.93,1.26-22.39,1.93-4.33.39-8.65.82-13,1.24C334.82,606.57,340.81,609.72,345.7,609Zm57-173.19c-.57-7.38-.49-6.4-.42-5.43.9-3.42,1.83-6.83,2.7-10.26s1.61-6.65,2.41-10c.16.38.51.79.45,1.13-3.17,18.56-4.61,37.49-13.3,54.78-4.3,8.57-7.67,17.6-11.46,26.43,5.93-.46,11.89-.7,17.78-1.43,4.36-.55,11.46-3.73,12.48-2.3,5.51,7.76,9.22,0,13.31-.9,3.12-.69,5.77-3.56,8.63-5.47-3.37,1.26-6.72,2.57-10.11,3.74-2.1.73-4.28,1.26-6.43,1.87-.69-4.73,3.31-3.2,5.52-4.3,6.58-3.29,14.27-5.64,19.25-10.63C459.06,457.49,475,441.87,488,424.21c8-10.91,12.81-25.15,15.79-38.61,3.95-17.86,6.91-37.63-8.53-51.84C482.5,322,466.21,321,450.66,329.64,412.07,351,404.73,388.15,402.66,435.85ZM163.41,318.69l0-.57c-4.8.35-9.63.51-14.4,1.09-7.2.87-14.36,2.05-21.53,3.09q11.37-.53,22.75-1.05c1.26-.05,2.53,0,3.8,0a9,9,0,0,1-1.31,1.71c-1.05.85-2.17,2.15-3.33,2.22-19.9,1.34-39.81,2.47-59.71,3.78-1.68.11-3.29,1.14-4.94,1.74a38.28,38.28,0,0,0,5.46,0C95.59,330,101,329,106.4,328.18c-5,1.44-10.07,2.8-15.06,4.34-4.26,1.31-8.46,2.83-12.68,4.26,3.9,1.53,7.72,3.41,11.74,4.54,13.85,3.91,27.58,9.28,41.73,10.94,25.76,3,61,28.18,66.39-24.62,0-.09.91-.3,1.09-.13.87.82,1.63,1.76,2.43,2.65.9-2,1.8-4.05,2.71-6.08-1.57-.54-3.16-1.6-4.71-1.54-10.29.36-20.58,1.12-30.87,1.3-1.38,0-2.81-2.5-4.22-3.84,2-.09,4-.3,6-.27,8.36.16,16.73.46,25.09.48.86,0,1.71-1.49,2.56-2.3-1.08-.38-2.19-1.16-3.26-1.1C184.71,317.36,174.06,318,163.41,318.69Zm9.39-9.39h-7.7c1.69-1.55,3.36-4.39,5.08-4.43,9-.19,18,.49,27,.48,1.79,0,3.58-1.7,5.37-2.62a43.64,43.64,0,0,0-5.21-.39c-16.69.69-33.4,1.27-50.07,2.26-6.79.41-13.52,1.77-20.28,2.69,7.12-.21,14.24-.46,21.36-.61,1.88,0,3.77.24,5.66.38-1.3,1.23-2.63,3.56-3.91,3.54-17.89-.28-35.57.64-52.88,5.88-11.07,3.36-22.4,5.86-33.55,9-1.48.42-2.54,2.33-3.79,3.55.75.45,1.71,1.44,2.23,1.25a87.49,87.49,0,0,1,29.14-5.71c10.23-.23,20.28-4.89,30.59-6.11,12.77-1.5,26.26.58,38.43-2.66,12.54-3.33,24.68.2,36.75-2.16,1.23-.25,2-2.93,3-4.48-1.24-.63-2.51-1.87-3.7-1.8C187.42,308,178.52,308.81,172.8,309.3Z"/><path d="M299.05,66.26c2,26-20.85,44.5-25,69.88-3,18.66-8.61,36.57-2.84,55.91,3.05,10.19,4.15,20.9,10.13,30.13.26.4-1.91,3.27-2.44,3.12-4.53-1.22-10.61-1.54-13.07-4.63a192.52,192.52,0,0,1-20.56-30.85c-5.12-9.85-11.06-20.82-11.2-31.37-.29-22.14,8-42.55,17.58-62.78,10-21.1,24.41-42.34,13.72-68-.41-1,.21-2.39.35-3.6a69.13,69.13,0,0,1,4,7.17c1.21,2.92,1.94,6,2.89,9.08-.52-3.54-.93-7.1-1.59-10.61-.51-2.68-1.33-5.31-2-8,1.18,2.45,2.54,4.83,3.51,7.36,12.19,31.61-7.86,55.54-19.51,81.49-5.72,12.73-9.15,26-9,40.06,0,1.68-.95,3.37-1.46,5.06-.81-2.16-2.54-4.43-2.27-6.45.76-5.8,2.49-11.47,3.46-17.25.27-1.61-.8-3.44-1.26-5.16-.6,1.4-1.57,2.75-1.75,4.21-1.9,15.18-5.16,30.43,1.67,45.3.45,1,.79,2.05,1.18,3.08a22.67,22.67,0,0,0,.18-3.38c-.46-4.94-1-9.88-1.53-14.82,2,5.74,5.7,11.48,5.68,17.22,0,10.41,9.8,13.91,12.93,21.78,1.26-3.46,4.05-7.15,3.56-10.34-5.12-33.38,5.94-62.7,20.37-92,20-40.64,8.3-73.47-32-95.4A11.79,11.79,0,0,1,250.33.06,8.74,8.74,0,0,1,253,.15C276.83,8.76,299.81,41.08,299.05,66.26Z"/><path d="M78.89,514.94c-22,4.5-48.51,9.95-75.06,15.37-1.08.22-2.19.28-3.29.41,1-.51,1.94-1.1,3-1.53,24-10,49.57-12.18,75-14.91,5.77-.62,6.4-2.47,4.07-7.55-14.64-32-28.08-64.37-31.67-99.84a14.81,14.81,0,0,1,.28-2.95c.27.87.57,1.72.79,2.6q4.24,17.06,8.46,34.1c-1.85-11.32-3.72-22.64-5.54-34-.22-1.39-.22-2.82-.32-4.23A24.26,24.26,0,0,1,56,406.71c5.62,42.61,24.37,79.89,47,115.61a20.88,20.88,0,0,1,1.39,3.4c-2.33-3-4.65-5.93-7-8.88-1.3-1.64-2.62-3.26-3.93-4.88.61,1.94.84,4.13,1.92,5.77,2.24,3.43,5.52,6.27,7.28,9.88,2,4.17,2.89,8.9,4.26,13.39-2-2.7-3.45-6.56-6.13-7.89-11.8-5.81-23.52,0-34.77,2.33-22.32,4.59-45.05,9-64.12,23-.47.35-1.27.26-1.92.38,1.1-1.53,1.87-3.61,3.35-4.51,25.85-15.61,54.89-21,84.07-25.92,2.71-.46,5.28-1.74,7.92-2.64C91.45,522.18,91,514.87,78.89,514.94Z"/><path d="M217.83,96c-2.07,3.25-2.61,4.42-3.44,5.33a82.66,82.66,0,0,1-5.9,5.94c-8.62,7.72-17.3,15.38-26,23.06-.37.33-.72.68-1.08,1,0-.44-.23-1-.05-1.3C189.39,116,201.52,106.19,217.83,96Z"/><path d="M403.88,357.37c-1.37-7.33,3.64-22.1-13.29-11.24-1.09.7-2.81.41-4.24.58a40.32,40.32,0,0,1,4.24-1.93c5.09-1.68,10.21-3.25,15.32-4.86l-.14,33.54c-.62-4.86-1.25-9.72-1.86-14.59C403.85,358.38,403.9,357.88,403.88,357.37Z"/><path d="M458.54,342.45c15.6-1.07,28.66,5.71,30.07,13.36,4.87,26.59-.87,52-19,73.82-14.79,17.73-31.14,32.89-53.74,39.84-2.64.82-5.56.76-8.36,1.1-.14-5.3,3.61-2.58,6.06-3.18,15.79-3.82,28.5-13.24,38.88-24.93,15.61-17.57,33.18-34.8,28.92-61.89-.13-.83.56-1.78.87-2.67.44.74,1.21,1.45,1.28,2.22.19,2.11.08,4.24.09,6.36.48-2.7,1.95-5.68,1.27-8-2.27-7.78-3.21-17.59-8.49-22.52-11.1-10.37-31.83,1.49-38.66,12.78-15.28,25.29-9,55.34-22,80.48a13,13,0,0,1-1.73,2.08,37,37,0,0,1-.47-4.43c0-2.42.25-4.85.39-7.27l-3.62,6.19c.81-4.8.85-9.88,2.55-14.34,7.75-20.29,3.29-43.37,14.11-62.77C434.68,354.76,446.37,345.32,458.54,342.45Z"/></g></g></svg>