<svg id="Layer_1" data-name="Layer 1" xmlns="http://www.w3.org/2000/svg" viewBox="0 0 148.06 90.59"><path d="M1018.93,555.08c-10.23-1.44-18.63.56-19.93,4.75-1,.79-2.23-1-3.24.25-.17,1.58,1.64,2,1.92,3.34-.06,1.22-2,1.31-1.72,3,2.14.42,4.6.34,5.78,2.84-9.83,1.1-16.43-5.83-24.34-9.4-8.67-3.93-14.35-10.51-17.86-20.52-.16-2,1.06-5.38-.3-8.56-6.07-2.44-7-1.09-8.68,12.87-3.26-4-.15-8.57-1.48-12.2-5.18-2.16-7.72-.47-8,4.89-.19,4,2,7.53,2.16,11.46-3.67-4.61-4.06-10.06-3.69-15.53-5.18-1.5-8.28.49-8.32,5.24a13.43,13.43,0,0,0,1,4.82c2.69,6.83,8.45,11.4,13.15,16.58,4.12,4.54,11,3.92,16.58,3.5a21.76,21.76,0,0,1,15.57,4.78c.82,1.65-1.31,1.76-1.36,3.11,1.22,1.57,2.65,3.09,4.76,3.41.35,1.29-.54,1.71-1,2.35l0,0L966,581c4.61,1.61,8.42-2.07,13.94-1.75-4.55,3.74-10,3-14.07,6.3-4.58-4.57-9.38-1.36-14.66-.27,1.16-2.91,3.89-2.19,5.32-4.32-6.92-.87-12.8,1.47-19.56,4.07-6.82-3.16-15.16-1.73-23.13-3.27-4.61-.9-7.87-3.94-11.74-6.08-7.15-4-11.31-10-15.1-16.72V547l6.5-7.67a14.35,14.35,0,0,0,0-1.91c-1.89-12.42,1.85-19.59,13.14-24.87,2-.92,3-2.48,4.11-4.15,3.86-5.87,9.06-10.36,16.27-9.93A17.59,17.59,0,0,0,939,495h12l3.71,2.86c-2.28,3.36-5.83,4.85-8.72,7.11l0,0c-1.91-1.46-3.52,1-6,.74,3.51-3.91,9.31-3.25,11.74-7.68-6.42-3.24-14-1.62-19.06,3.93-6.52,7.08-7.77,22.08-2.53,30.82a9.75,9.75,0,0,0,3.9-3.72c-.09-6.85.13-13.64,4.13-19.62-1.25,6-3,11.84-1.72,18.06.39.34.71.8,1.14,1A17.54,17.54,0,0,0,940,529l0,0c3.07.88,4.65-2.06,7.2-2.54,1.21-7.32,3.14-14.06,10-18.17-4.7,4.89-7.8,10.4-7.3,17.56,3-10.71,9.31-18,20.71-20.51-2.49-5.36-7.26-5.45-11.42-6.6,6.81-2.24,14.12,1.86,16.65,9.48l4.07.48c5.74,6.92,2.48,16.66-5.9,18.33-7.08,1.4-12.25,9.92-10.18,16.77a16.62,16.62,0,0,0,4.82,8.05c6.1,5.26,13.41,8.51,20.2,12.41,9.49-10,22.09-13.83,30.27-9.34ZM906,524c1.21-2.78,1.28-5.72,1.55-8.71-6.87.55-11.85,6.61-12.35,14.63-.74,12,11.69,28.62,24.61,31.93-2.28-2.59-1.35-5.37-2-7.68-9.15-8.16-13-14.06-14.42-21.73-.61-3.33-.25-6.3,2.67-8.49-2.79,11.17,3.46,18.69,10.49,25.88,1.14,1.17,2.59,1.95,3.36,3.59,3.26,7,10.89,11.23,20.36,10.61-6.75-6.49-16.92-9.27-17.24-19.67,2.83,8,9.12,12.37,16.49,15.3,5.25,7.36,13.29,9.07,24,5.22-.73-1.17-1.76-.42-2.66-.45-6.32-.2-12.8,0-17.81-4.87-10.8-10.51-17.33-23-17.13-38.39,0-3.48.34-7-.82-10.19,1.51-3.12,3.34-5.9,3.78-9.24-8.81-1.69-16.42,3.24-18.64,11.93-2.94,11.49,1.31,21.22,7.53,30.48.86,1.27,2.77,2,2.24,4.29-2,.09-2.91-1.35-3.84-2.63A46.59,46.59,0,0,1,908,528.28C907.65,526.68,907.84,524.87,906,524Zm-12.3,19.46c-2.95.28-4,2.49-4.84,4.91-1.64,4.91,0,9.26,2.72,13.18,8,11.71,20.79,12.63,33.1,14.79-1.68-4.17-4.19-7.16-8.54-8.26a32.26,32.26,0,0,1-14.5-7.42c-2.45-2.28-4.89-4.84-3.92-9,13.86,13,15.76,14.27,23.06,13.88C908.32,560.9,901.25,552,893.67,543.48ZM961.29,529c5.86-7.71,6.37-8,13.43-6.23,2.85-2.06,4.65-4.62,3.47-8.4-.91-2.92-2.7-4.83-5.92-5.24A17.28,17.28,0,0,0,953,527.31,12.54,12.54,0,0,1,961.29,529Zm-38.43,33.11c.32,4.95,3.76,6.72,7.53,7.33,3.48.56,7.38,2.77,12.05-1.08C935.16,566,928.64,565.35,922.86,562.07Zm3.31,8c3.52,6.63,10.34,7.65,20.25,4.09C940.16,571,933.26,573.93,926.17,570Zm18.52-1.78c9.2,5.13,17.94.37,26.84-2.21C962.65,566.7,954,570.87,944.69,568.25Zm-10.18,10.82c5.54,2.87,10.87,1.8,16.06-1.19C945.11,575.63,939.91,579,934.51,579.07Zm-5.73,1.35c-7.41-1.63-14.8-2.78-22.07-4.62C913.48,580.26,921,581,928.78,580.42ZM977,575.33l-.5-1.74-15.39,4.92C967.05,579.53,971.76,576.46,977,575.33Zm-25.46-1.5c6.43.64,12.3-1.15,17.9-4.08C963.64,571.71,957.37,571.76,951.57,573.83Z" transform="translate(-887 -495)"/><path d="M1019.08,554.92c2.51.34,2.81,3.16,4.58,4.18,2.35,1,5.14-1.14,7.54,1.71-4.41-.1-7.46,2.24-11.16,4.49,4,2.88,9.26-.33,11.71,3.59,2.23-.45,1.54-2.53,3.31-3.13-.3,9.64-10.7,8.65-14.25,15.19-4.52-4.08-7.35-8.86-12-11.22,1.16-4,5.41-3.68,6.6-6.69-1.91-5.71-6.95-4.62-12.7-5.22a25.36,25.36,0,0,1,12.48-1.57c1.31.15,3.32,1.79,3.75-1.17Z" transform="translate(-887 -495)"/><path d="M980,576c2.66-.39,5.28-.84,6.73-3.62-.43-3.85-4.55-4-7.35-7.09,5.74,1.71,9.65,3.82,12.09,8.79-4.33,1.58-10,1.72-7.78,8.48,3.84,2.75,7.39.92,10.88-.52,6.16-2.54,12.08-.46,18.06.62-4.66,1.32-9.24.64-14.62-.27-4,3.26-9.43,3.12-14.61,2.35-3.59-2.27-1-6.4-3.37-8.78Z" transform="translate(-887 -495)"/><path d="M963.35,559.3c-11,1.85-17-1.89-16.74-10.32C948.44,558.44,956.55,557.82,963.35,559.3Z" transform="translate(-887 -495)"/><path d="M898.18,575.93c2.43,3.62,6,5.88,9.77,8.11C902.14,586.06,898.92,583.43,898.18,575.93Z" transform="translate(-887 -495)"/><path d="M946,505c-4,7.5-4.39,15.92-6,24l0,0c-1.17-8.8.37-16.93,6-24Z" transform="translate(-887 -495)"/><path d="M960.74,554.9c-6.64-.56-8.29-2.87-7.13-9C953.85,550,955.61,553,960.74,554.9Z" transform="translate(-887 -495)"/><path d="M924.67,537.21c-4.25-6-5.9-12.39-3.42-19.51A77.11,77.11,0,0,0,924.67,537.21Z" transform="translate(-887 -495)"/></svg>