<svg xmlns="http://www.w3.org/2000/svg" viewBox="0 0 610 668"><defs><style>.cls-1{fill:#fff;}</style></defs><g id="Layer_2" data-name="Layer 2"><g id="Layer_1-2" data-name="Layer 1"><path class="cls-1" d="M0,668V0H610V668Zm13.63-64.54.95,1L24,610.07l0,0-8.61-6.4-1-1-1.07-.93-.92-1.07L4.52,589.18l-1.32.94,8.43,11.36c.34.32.68.64,1,.95S13.31,603.12,13.63,603.46ZM178.7,573.13l1.17-.8q4.41,3.9,8.84,7.78l0,0,6,5,0,0,15,8,0,0,4,1,0,0c22,4.46,43.95,11.66,66.17,12.85,57.09,3.08,117.48,12.2,152-54.78,26.36,7.48,56.71,6.31,83,21.72,4.76,2.8,11.82,3.68,12,10.73.21,7.26-5.37,11.4-11.38,13.53-19.6,7-39.4,13.36-59.12,20l0,0c-10.69,1.9-21.31,4.9-32.07,5.5-45.14,2.54-90.32,4.31-135.49,6.48-43.88,2.1-87.14-4.68-130.51-9.36-20.76-2.23-41.26-6.79-71.2-11.89l44.77,11.3,0,0C113,619,95,614.18,77.39,607.55c29.49,13.26,60.58,19.69,87.87,23.66l-2.83.46a888.18,888.18,0,0,0,123.66,8.56c13.27.94,26.56,1,39.84.92,41.45-.26,82.52-4.92,123.54-10.37a229,229,0,0,0,76.92-24.32c8.78-4.61,14.18-12.87,12.91-23-2.42-19.31-20.8-22.24-33.86-27.54-21-8.52-43.81-12.52-63.44-17.78l16.28-2.93,0,0L536,550.55c-13,0-25.36-3.26-37.81-5.91s-24.83-4.64-39.7-7.38c2.56,2.15,2.88,2.64,3.3,2.73,2.42.58,4.87,1,7.29,1.6,36.43,8.55,75.26,9.69,106.55,34.19,8.21,6.42,5.86,14.33,0,19.59a77.71,77.71,0,0,1-23.49,14.25c-18.94,7.26-38.4,13.15-57.18,19.44h2.3l-6,1,0,0c-13.32-1.47-25.57,4.94-38.18,5.91-54.32,4.14-108.53,9.26-163.2,9.71-41.84.34-83.18-4-124.49-7.63-39.24-3.47-78.86-8.18-117-19.92l36.72,11c-19.14-1.49-38.16-8.43-57.13-15.81,14.35,6.54,27.35,16.45,44,16.66l0,0,59.93,13,0,0a71.15,71.15,0,0,0,8.12,2.19c80,12.06,160.47,8.77,240.89,8,28.17-.26,55.89-3.92,83.47-9.19l0,0c15.89-1.79,32.08-2,47-9l3-1,3.24-.79,12.74-5.18,0,0,.06,1-.31.2.27-.24c19.81-6,40.57-10,55.16-26.73v-.43h-.43L583,603.07l0,0,3-4,0,0q1.49-3,3-6l0,0c10.27-19.29-4.09-25.92-16.93-34-22.28-14.1-46.85-21.15-72.47-25.73-17.4-3.12-34.65-7.07-56.55-11.59,10.25-2.36,16.65-5,23.08-5.08,14.35-.21,26.91-4.38,38-13.39l0,0c17.23-4.69,27.34-18.11,37.93-30.94l1-1,1.29-1.73q2.9-3.58,5.81-7.15l1.11-2c13.59-16.09,23.48-34,26.74-55.07l0,0v-1l0,0c7.57-17.87,5.92-35.39-2.78-52.24-5.33-10.32-25.08-20.44-33.71-17.47l11.82,4.09C518,331.16,502,350.32,486.3,370.27l-2.09-6.81,0,0c4.52-9.79-.09-18.92-1-28.83l-5.73,2.12-11-4.52-.59,1.52,9.11,4.91-17.74,7.79,0,0c-9.38-5.1-19.11-8.6-30.21-7-40.44-10.6-82-10.43-124-10.31-.09-.81-.25-2.49-.7-7l146,9.81.14-.76-40.14-5.77,0,0,54.78,5.59c.08-.59.17-1.19.25-1.79l-65-11.81,0,0-85.87-3,0,0-6.88-.32c.64-3.73,1.69-8,2-12.28,2.83-35-11.69-64.59-29.13-93.27l0,0q-4.47-14.5-8.95-29l-.05,0q-.48-19.49-1-39h0q2.51-7,5-14l0,0,21.13-22.3c-8.86,6.15-10.7,7.8-12.83,8.85-32.74,16.18-54.64,60.22-45,94.43,4.63,16.49,13.06,31.91,19.77,47.81l0,0-2,1,.05,0c-3.54-5.7-1.54-14.4-13.14-20.67,4.44,6.36,6.32,9,8.19,11.71l0,0c0,7.16,2.89,13,8,17.94l0,0,10.77,41.78a6.73,6.73,0,0,0-.19.83l.67-.42c.59-1.17,1.17-2.35,1.86-3.74v8.17c-45.56,4.08-91.51,1.88-135.34,16.3-5.65,1.86-14.57.25-15.52,10l0,0q-2.44,15.39-4.9,30.76l2.77.38c1.61-6.75,3.23-13.49,5-21.12,101.2,38.3,203.53,50.74,308.17,19.34l4.42,1.63,0-.05-12,3,.05.05-24.17,6.17c25-1,47.36-10.86,71.5-21.24.13,50.91-8.87,98.55-23.5,137.26-5,9.26-6.37,11.52-7.47,13.91-6.39,13.93-11.4,28.9-28.45,34.05-14.35,4.34-28.59,9-42.88,13.58l0-.05-2,1,0,0c-4-4.86-8.4-.67-12.3-.14-26.37,3.57-52.83,3.76-85.62,2.07l16.11,4.29c-39.6-3.15-74-8.61-107.78-18.14l-.15-2.06,0,0-.2,1.85-4.71-6.7v-1.24c-30.24-43.23-48.22-90.84-51-143.76v24.06h0l-2-1v-.12c-1.51-3.91-.73-1.91,0,.09,0,5.42-.74,11,.26,16.23,6.3,33,18.57,64.06,32.07,96.25-13.4,1.77-26,2.35-38.06,5.23C77.68,542.56,41,548,11.83,572.94l0,1.33L7.51,586.14c15.72-26.87,110.21-59.48,147.85-54l7.22,9.81c-35.43,9.27-74.08,8.66-99.71,39.26,2.29.35,3.41-1.6,4.88-3.24,1.66-1.83,3.35-4.23,5.51-4.94,33.27-10.88,64.21-38.28,102.46-14.91h0q0-3,0-6l0,0c-.4-.83-.81-1.65-.91-1.85,27,5,54,11.4,81.37,14.84,27.06,3.41,54.49,3.89,81.76,5.65l-.11,1.4H315.7c33.25,3.55,64.88-4.55,96.54-14.22-6.73,23.72-25.93,28.94-45.86,33.12l0,0c-3,.72-6,1.79-9,2.12-37.57,4-75.15,7.77-112.42-2.42-15.84-4.33-33.2-3.41-47.33-13.69l0,0L182,564.72c4.5,5.79,7.07,9.12,9.65,12.44l0,0c-9.24-1.34-9.54-12.63-18.84-17.56L179.54,572l-.82,1.14ZM323.47,29.94l1,1,7.74,8.43c6.92,30.73-7.09,55.65-19.38,82.52-18.06,39.45-18.72,79.39,16.6,112.38,5.49,5.13,10.12,12.91,19.5,9.09,1.62-.66,3.43-5.6,2.61-6.73-8.89-12.31-12.15-26.24-13.07-41l0,0c.65-26.88,8.6-51.84,20-75.91l0,0Q365,103.93,371.68,88l-2.91-1.12c-.62,1.78-1.25,3.56-2.38,6.81V64.9l.19-.33-.17.35-1-3-1.83-8.15h-.32v.32l2.22,7.87c-7.95-14.67-17.1-28.54-31.4-37.68-6.32-4-11.66-13.07-21.54-7.28h0l6.72,5.26,1.3.72q1,3,2,6C322.8,29.28,323.14,29.61,323.47,29.94ZM58.89,587.14l0,0c.25,10.33,7.78,14.15,15.94,17.34l-9-7.35,0,0Zm57.89-187.7V374.09l-2.87.17,1.83,30.56,1.08,0v-5.4ZM242.85,556.19l-.36,1.22,6.62.91.17-1.17Zm23.69,3.91.09-1.28-2.79-.32-.17,1Zm265.4-226.39v.58h3v-.58ZM368.59,84.22h0C370.16,77.56,370.36,76.74,368.59,84.22Z"/><path d="M423.28,372.42l12-3,5-2c.36-.1.73-.2.16-.05.51-.3.19-.11-.13.09l-5,2-4.42-1.63c-104.64,31.4-207,19-308.17-19.34-1.82,7.63-3.44,14.37-5,21.12l-2.77-.38q2.45-15.37,4.9-30.76l1-1,.09-.1c.18-.45.06-.16,0,.14l-1,1c1-9.76,9.87-8.15,15.52-10,43.83-14.42,89.78-12.22,135.34-16.3V304c-.69,1.39-1.27,2.57-1.86,3.74l-.48-.41-10.77-41.78,0,0c-5.09-4.9-8-10.78-8-17.94l1,1h0l-.93-1c-1.87-2.68-3.75-5.35-8.19-11.71,11.6,6.27,9.6,15,13.14,20.67.29,1,.58,2.05.07.23,1,1.65.42.73-.12-.19l2-1c.33.67.65,1.34,1,2l2,5c.26,1,.52,2.07,0,.17.94,1.75.44.8-.07-.14q-1-2.52-2-5l-1-2c-6.71-15.9-15.14-31.32-19.77-47.81-9.6-34.21,12.3-78.25,45-94.43,2.13-1,4-2.7,12.83-8.85l-21.13,22.3,0,0q-2.51,7-5,14l-1,4q-1.53,5.13-3.07,10.28l1,.26q1-5.28,2.05-10.56l1-4q.49,19.49,1,39l.05,0q4.47,14.49,8.95,29l0,0C296,237.36,310.51,267,307.68,302c-.35,4.3-1.4,8.55-2,12.28l6.88.32-.29.21.26-.24,85.87,3,0,0,65,11.81c-.08.6-.17,1.2-.25,1.79l-54.78-5.59,0,0,40.14,5.77-.14.76-146-9.81c.45,4.49.61,6.17.7,7,42.07-.12,83.6-.29,124,10.31,11.1-1.6,20.83,1.9,30.21,7l-2,1-51-8.55c-.07.46-.15.92-.22,1.39l46.79,6.9L298.52,337l-17,24.47,0,0c-3.76,4.39-7.52,8.79-12.3,14.36-.21-1.12,0,.09.26,1.32l-6.29,2.31h67.25c1.41-.1,2.83-.21-.18,0,2.95-.55,1.56-.29.17,0H318.39l.09-1.38,65.41-6.67-2.41,1.8,2.31-.31,71.44-25.41,2-1L475,338.68l-9.11-4.91.59-1.52,11,4.52,5.73-2.12c.92,9.91,5.53,19,1,28.83l-.93-19.08-1.47.13q1.21,9.47,2.42,18.93l2.09,6.81C502,350.32,518,331.16,553.36,338.8l-11.82-4.09c8.63-3,28.38,7.15,33.71,17.47C584,369,585.6,386.55,578,404.42v-.15c-.58-2.95-.27-1.41,0,.13v1l-1,1,0,0,1-1c-3.26,21.1-13.15,39-26.74,55.07l-.34-.16-1.64.33.66,1.53.21.26q-2.91,3.57-5.81,7.15l-.53-.5c.09-.58.18-1.17.26-1.76l1-.94,1-1.05,1-1,0,0-1,1-1.06,1-.95.95c-.33.69-.67,1.37-1,2.06l0-.05-1,3v0c-10.59,12.83-20.7,26.25-37.93,30.94l-.33-.12.31.15c-11,9-23.61,13.18-38,13.39-6.43.09-12.83,2.72-23.08,5.08,21.9,4.52,39.15,8.47,56.55,11.59,25.62,4.58,50.19,11.63,72.47,25.73,12.84,8.12,27.2,14.75,16.93,34l0,0-3,6,0,0-3,4-2,2h0c.66-.68,1.32-1.35,2-2l1.83-1.18.42.42c-14.59,16.74-35.35,20.75-55.16,26.73l0,0-.06-1,.3-.19-.27.22-12.74,5.18c-.21-.14-.43-.27-.65-.4l-2.55.19-.05,0-21.91,5-.34.21.3-.25,19-3v0c-14.9,7-31.09,7.22-47,9,.15-.43.3-.85,0-.1-.1-.8,0-.36,0,.07-27.58,5.27-55.3,8.93-83.47,9.19-80.42.74-160.91,4-240.89-8a71.15,71.15,0,0,1-8.12-2.19l.19,0c.41-.24.13-.08-.15.08l-59.93-13,0,0c-16.64-.21-29.64-10.12-44-16.66,19,7.38,38,14.32,57.13,15.81l-36.72-11c38.18,11.74,77.8,16.45,117,19.92,41.31,3.65,82.65,8,124.49,7.63,54.67-.45,108.88-5.57,163.2-9.71,12.61-1,24.86-7.38,38.18-5.91l-.19,0c-1.47.63-.66.28.16-.06l6-1a7.21,7.21,0,0,0,.74-.36c-.25.11-.49.24-.73.37h-2.31c18.78-6.29,38.24-12.18,57.18-19.44a77.71,77.71,0,0,0,23.49-14.25c5.9-5.26,8.25-13.17,0-19.59-31.29-24.5-70.12-25.64-106.55-34.19-2.42-.57-4.87-1-7.29-1.6-.42-.09-.74-.58-3.3-2.73,14.87,2.74,27.35,4.76,39.7,7.38s24.78,5.91,37.81,5.91l-77.71-15.34c-2.43-.68-4.85-1.37-.36-.1-4.61-.66-2.11-.3.39.06L442,538.1c19.63,5.26,42.45,9.26,63.44,17.78,13.06,5.3,31.44,8.23,33.86,27.54,1.27,10.17-4.13,18.43-12.91,23a229,229,0,0,1-76.92,24.32c-41,5.45-82.09,10.11-123.54,10.37-13.28.09-26.57,0-39.84-.92a888.18,888.18,0,0,1-123.66-8.56l2.83-.46c-27.29-4-58.38-10.4-87.87-23.66C95,614.18,113,619,131.78,620.07l5,1,13.3,2.84.17-.95-13.5-1.86-5-1L87,608.8c29.94,5.1,50.44,9.66,71.2,11.89,43.37,4.68,86.63,11.46,130.51,9.36,45.17-2.17,90.35-3.94,135.49-6.48,10.76-.6,21.38-3.6,32.07-5.5.53.23,1.05.45.15.07,1,.18.39.07-.18,0,19.72-6.61,39.52-13,59.12-20,6-2.13,11.59-6.27,11.38-13.53-.19-7.05-7.25-7.93-12-10.73-26.24-15.41-56.59-14.24-83-21.72-34.5,67-94.89,57.86-152,54.78-22.22-1.19-44.12-8.39-66.17-12.85l.26-.06c.79-.34.28-.12-.22.1l-4-1a6.55,6.55,0,0,0,.61-.49c-.2-.18-.4-.33-.61-.49l-.29-.2.33.17v1l-15-8,0,0-6-5,0,0-8.85-7.78-.32-.32-6.68-12.46c9.3,4.93,9.6,16.22,18.84,17.56q2,1.51,4,3l2,1,1,1,2,1,2,1,2,1,.34.14-.38-.09-2-1-2-1-2-1-1-1-2.06-1-4-3c-2.58-3.32-5.15-6.65-9.65-12.44l15.69,12.44,0,0c14.13,10.28,31.49,9.36,47.33,13.69,37.27,10.19,74.85,6.46,112.42,2.42,3-.33,6-1.4,9-2.12.28.14.56.28.11,0l-.13,0c19.93-4.18,39.13-9.4,45.86-33.12-31.66,9.67-63.29,17.77-96.54,14.22h22.13l.11-1.4c-27.27-1.76-54.7-2.24-81.76-5.65-27.35-3.44-54.33-9.79-81.37-14.84.1.2.51,1,.91,1.85l0,0q0,3,0,6h0c-38.25-23.37-69.19,4-102.46,14.91-2.16.71-3.85,3.11-5.51,4.94-1.47,1.64-2.59,3.59-4.88,3.24,25.63-30.6,64.28-30,99.71-39.26l-7.22-9.81c-37.64-5.52-132.13,27.09-147.85,54l4.35-11.87.25-.35.07-.36-.36-.62C41,548,77.68,542.56,113.09,534.08c12-2.88,24.66-3.46,38.06-5.23-13.5-32.19-25.77-63.28-32.07-96.25-1-5.24-.22-10.81-.26-16.23l0,0,2,1q1,7,2,14,1.83,9.88,3.65,19.77l1.06-.22-4.74-19.52q-1-7-2-14V393.32c2.79,52.92,20.77,100.53,51,143.76l-.17.27a.88.88,0,0,0,0,.64l.2.33,4.71,6.7.31.25c33.75,9.53,68.18,15,107.78,18.14l-16.11-4.29c32.79,1.69,59.25,1.5,85.62-2.07,3.9-.53,8.32-4.72,12.3.14l-4,1-.31.25.29-.28,4-1,2-1c1.08.25,2.16.5.31.08,1.89.13.77,0-.35,0,14.29-4.54,28.53-9.24,42.88-13.58,17.05-5.15,22.06-20.12,28.45-34.05,1.1-2.39,2.48-4.65,7.47-13.91,14.63-38.71,23.63-86.35,23.5-137.26-24.14,10.38-46.45,20.21-71.5,21.24l24.17-6.17ZM281.55,354.49l-1,1h0l1-1c.34-.33.67-.67,1-1l.07-.08-.05.11Zm291.53,0h0Zm-43.92,92.86c.32-.34.64-.68,1-1l.14-.31-.12.33-1,1Zm9-13c.32-.35.65-.69,1-1,1.61-2.56,3.21-5.12.12-.19,2.34-5.34,1.12-2.56-.1.22-.34.33-.68.66-1,1l-1,1-1,2v0l1-2Zm29.94-86.9h0l-1-1-1-1,0,0,1,1Zm-280.54-1Zm-11,14-1,1v0l1-1Zm-150.74-21h0Zm218.64-4,0,0ZM576.08,603.1l1-1c.33-.34.67-.68,1-1l1-1,1-1,0,0-.93,1-1,1-1,1-1,1ZM293.5,321.49l0,.05Zm229.65,278.6,1-1,1-1,2-1h0l-2,1-1,1-.92,1Zm-122.81-17,1-1h0l-1,1Zm132.78-8,1,1,.16.31-.15-.32-1-1-1-1-1-1-7-6,0,0,7,6,1,1Zm51.93-4h0l-1-1-1-1c-1.51-2.54-3-5.08,0-.08-4.64-3.23-2.28-1.59.07,0l1,1ZM285.53,227.67l1,1,1,2h0l-1-2-1-1-1-1,0,0Zm-35.94-4,1,.95c.34.67.67,1.34,1,2l.77,1.84,1.21-1.85,3,3,0,0,1,2,0,0c1.21,2.89,2.45,5.77,3.61,8.68,6.39,16,15.39,31.24,15.36,49.27q-1.5-3.49-3-7l-.2-.31.22.29,3,7c6.44,16.58,4.88,33.79,4,50.94-.59.21-1.18.41-.08,0-.42,1-.19.45,0-.07,9.09-11,12.88-24.31,15-33.8,2.2-26.44-1.93-48-10.61-68.56l-2.35-4.46v0c-18.78-30.08-34.87-60.6-15.95-96.88l0,0c.59-2.77,1.18-5.54,1.89-8.85-10.2,11.32-22.43,20.41-25.86,35.85l0-.07c-5.37,12-8.16,24.12-3,36.94l.19.28-.21-.26c-.2-2.51-.39-5-.57-7.3,4.92,11.25,9.75,22.26,14.57,33.27l-2,0-1-2-1-1ZM544.11,372.45h0l1,1c.24.21.49.43-.07-.07.66.36.37.21.08.05ZM413.31,555.16l0,0Zm-249.59-23a2.54,2.54,0,0,0,0-1l0,0c0,.33,0,.66,0,1ZM503.18,379.45l-1,1h-1c-.15-.19-.3-.38-.47-.56l-.49.54h0l.45-.06.44.13c0,.64.07,1.28.1,1.92h0c.32-.66.65-1.33,1-2l1-1,1-1c1.11-1.32,2.22-2.64.05-.06,1.52-3,.74-1.47,0,.08Zm-6,121.8h0Zm22-9,1-1,0,0-1,1-1,1-3,2-2,1-.15.28.17-.27,2-1,3-2C518.47,492.92,518.8,492.58,519.14,492.24Zm-9-2.95,0,0-1,1,.3-.14-.25.18Zm17-12h0Zm10-8h0Zm23-127.79,1,1c.22.58.44,1.16,0,0,1,.45.49.22,0,0-.31-.34-.63-.68-.94-1l-.31-.1ZM277.53,214.69l0,0,.2.3ZM546.11,418.38l.11-.39-.12.38Zm-84.86-61.91-2,1-3,1-2,1-2,1-3,1-11,4-2,1-.31.21.33-.19,2-1,11-4,3-1,2-1,2-1,3-1,2-1Zm89.82,43.9.19-.33-.15.36-.13.31ZM241.61,205.68l0,0-.25-.31ZM567.09,412.4l.1-.43c-.05.13-.09.27-.13.41l-1,2-2,0c-1.53-17.81,8.93-35.38-1.84-55.19,10.58,5.51,4.46,12.83,7.52,18.11,0-3.12.9-3.25,2.31-.87v.24c.57,3.49.27,1.64,0-.22-1.78-29.21-25.36-43.19-52.07-31-21.33,9.69-31.53,29.28-43.21,49.05-.63,6.22-1.39,13.81-2.13,21.26l1.65-.41c-.61,33.06-10,63.77-25,92.95l0,0c18.13,0,34.3-6.6,49.93-15h2v0h-2l27-23,0,0c8.79-9.65,18.47-18.69,22-32h0c-1.5,1.62-3,3.25-4.88,5.31-3.23-7.31,5.81-7.6,4.95-12.51V428l-24,32.29,0,0-13,11h0c-12.56,7.48-25,15.26-38.91,17.95,2-9.49,4-18.71,5.95-27.93.49-1.28,1-2.56.09-.24.42-2.44.19-1.08-.05.27l-4.17,12.08-1.95-.58q9.54-44.22,19.09-88.43l0,0,17-20,.29.15-.28-.17c7.53-6.52,16.63-7.18,26-6.95l0,0c3.17,1.39,6.42,2.62,9.49,4.21,10.17,5.28,15.5,14.58,17.39,25.09.92,5.1,3.59,12.15-2.91,16.67,1.58-12.17.95-19.51-3-22.16,4.83,13.33-.26,24.62-4,36.11-.21.54-.43,1.08-.05.12-.06,1,0,.44,0-.15q3.47-6.91,6.94-13.84c.36,3.63.73,7.25,1.09,10.88l-.24.36.22-.38,3,0q-5.62,13-11.24,26l1.93.8,11.31-26.8ZM381.36,592.09l.3-.24-.26.28Zm87.88-239.64-.28.15.32-.11.94-1,4-2c.39,6.45.78,12.89.94,15.61-.91-2.65,5.08-9.59-.93-15.6l-4,2Zm-57.9,220.69.13-.25-.14.24ZM569.06,427.36c-.33.67-.66,1.33-1,2h0l1-2ZM511.15,569.15h0l-2-1L509,568l.22.14Zm-162.74-1,.41-.16-.37.19Zm211.68-5,.31.18-.29-.21-2-1-.31-.17.3.18ZM515.17,373.44h0l1.94,1c-26.68,31.26-21.92,73.36-40.31,109.06,21.4-4.57,34.13-17,46.35-30.22h0c7.85-13.81,18.6-26.79,22.78-41.63,4.61-16.4,5.91-35.59-16.68-43.35-4.19,2.1-8.15,4.1-12.11,6.1ZM416.31,543.18l2-1,2-1,0,0-2,1-2,1Zm28.94-22,.17-.29-.14.32-.11.31ZM271.55,274.6v0l-.33-.3Zm191.7,72.88,2-1c1.91-.61,3.82-1.23.13,0l-.11.07-2,1ZM297.52,257.61h0l-.16-.32Zm-36.95-10,1,2q2.49,5.49,5,11l.18.3-.21-.27-5-11-1-2c-.33-.67-.67-1.33-1-2-.09-.36-.17-.72,0-.15-.27-.52-.1-.2.07.12C259.92,246.28,260.25,247,260.57,247.63Zm311.5,171.75-.16.24.14-.25.13-.31Zm-20,15,1-2c.34-.64.68-1.29,1-1.93.65-1.34,1.31-2.68,2-4l2-4c.33-1,.65-2,1-3l.13-.34-.08.38c-.34,1-.67,2-1,3-.66,1.33-1.33,2.66-2,4l-2,4-1,1.92-1,2.07ZM283.55,341.51l-1,2h0c.33-.67.65-1.34,1-2l1-1,2-4,1-1c.14-.28.28-.57.05-.09.11-.51,0-.2,0,.11l-1,1c-.66,1.33-1.33,2.65-2,4ZM514.16,627.07l-.13,0c-.39.26-.14.09.11-.08l.4-.15Zm17-5,3-1,.14,0c.43-.26.16-.09-.11.07l-3,1-3,1-4,1-.34.18.32-.2,4-1Zm17-6,3-1,0,0-3,1-.36.22Zm-46.92-7,.11,0-.09.06-.14,0ZM124.8,347.47l.28.2-.3-.18c-.35-.15-.69-.31-.12-.05C124.06,347.3,124.43,347.39,124.8,347.47Zm392.35,15c-.28.13-.56.26,0,0-.52.4-.28.21,0,0ZM342.48,599.07v.13c.16.44.06.17,0-.1-.33-.16-.66-.32-.15-.08C341.75,598.89,342.11,599,342.48,599.07Zm-86.9-2-.42-.09.43.08c.32.16.65.32,0,0C256.3,597.26,255.94,597.19,255.58,597.11ZM571.05,350.49l-.18-.3.2.28,0,.06C571.59,350.77,571.32,350.63,571.05,350.49ZM264.58,275.56l-.16-.2.14.22,1,3,2.49,15.79,1.68-.36-4.2-15.41C265.22,277.59,264.9,276.57,264.58,275.56ZM452.24,499.22c.14-.26.29-.53.06-.12.1-.46,0-.15,0,.15l-.13.32Zm7-17.91c-.16.27-.33.53-.08.14-.13.44,0,.14,0-.17l.13-.32ZM156.74,629l.35.16-.38-.12c-.54-.2-1.08-.41-.14-.05C155.57,628.92,156.16,629,156.74,629Zm378.41-34.9-2,3-.23.22c-2,2.83-.9,1.28.18-.26l2-3,1-3c.23-.52.46-1,0-.1.26-1,.11-.44,0,.11C535.8,592.13,535.48,593.14,535.15,594.14ZM383.38,554.19c-.54.09-1.08.19-.19,0-.82.38-.33.15.16-.07l.16,0Zm-31,5.95c.53.07,1.06.13.11,0l-.07,0-.39.17ZM275.55,291.57h0c.17.58.34,1.15,0,0C276.06,292.64,275.8,292.1,275.55,291.57Zm45.92,309.54-5,1h-.27c-2.56.49-1.16.22.24,0l5-1,.17-.06Zm152.75-90.86c-.59-.07-1.18-.13-.07,0-1.07.31-.51.15.05,0l.35-.18Zm48.93-29c-.81.53-1.63,1-.08.06-1.22,1.39-.58.65.06-.08Zm2,5c-.68.75-1.37,1.5,0,0-.94,1.88-.49,1,0,0ZM453.26,640l.26,0c1.84-.5.8-.22-.23.06-.31.07-.62.15-.15,0C452.71,640.34,453,640.19,453.26,640ZM484.2,507.23l5-2c1.48-.5,3-1,.22-.07,2.41-1.63,1.12-.76-.18.12l-5.05,1H484c-2.06.4-.93.18.2,0v1Zm11-115.78c-.63.54-1.26,1.07-.11.09-.63,1.39-.28.63.06-.13l.12-.32Zm-24,45.9c.24-1.08.48-2.17,0,.08.21-2.3.11-1.19,0-.09-.21.54-.43,1.08,0,0C471.07,438.5,471.15,437.92,471.23,437.35Zm48.9-67.92c1-.27,2.06-.54.2-.06l-.16.09ZM156.74,325.49l.17-.05c1.33-1,.6-.44-.13.1l-.31.19Zm418.31,32,0,0c.34,1.23.68,2.47,0,.13C576.24,359.73,575.65,358.6,575.05,357.47ZM466.24,511.24l-6,1-.46-.08.41.13,6-1Zm63.88,32,0,0c1.53.48,3.06,1,.13,0C533.31,543.64,531.72,543.42,530.12,543.2ZM489.2,613.1c-1.57.28-3.14.56-.27,0-2.72,1.1-1.24.5.23-.1l.19,0ZM254.59,233.65h0c.63,1.37,1.26,2.73,0-.08C256.38,236.08,255.49,234.86,254.59,233.65ZM157.74,340.48c1.16-.24,2.32-.48.18,0,1.91-1.11.88-.51-.14.08l-.2.05C157.21,340.79,157.47,340.63,157.74,340.48ZM418.33,570.17c-.87,1.22-1.75,2.44-.08.11-1.08,2.65-.51,1.26.06-.13l.17-.35Zm-80.9-2,0,0c1.73.35,3.47.7.36.07C341,568.46,339.21,568.32,337.43,568.17Zm57.92,24-5,2h0l5-2,.32-.16ZM500.18,631c1.6-.29,3.2-.57.25,0,2.77-1.17,1.28-.54-.22.09l-.29.18ZM246.58,218.67h0q-1.49-3-3-6l-.14-.22.12.24C244.59,214.68,245.59,216.67,246.58,218.67ZM154.73,346.46c1.88-.24,3.76-.49.25,0,3.4-1.06,1.59-.5-.21.07ZM386.37,596.12l-9,2h0l9-2,.3-.25Zm100.83,23c-1.86.5-3.73,1-.18,0-3.18,1.84-1.51.87.15-.09l.32-.21ZM165.72,537.21l0,0c1.41,1.64,2.81,3.29.09.1C169.21,539.77,167.46,538.49,165.72,537.21ZM408.33,367.46c-3,.5-6,1-.12,0-5.72,1.67-2.8.82.11,0l6-1,30.92-11,.29-.22-.26.27-30.93,11Zm63.91,36.93,0,0c-.15-3.08-.29-6.15,0-.22C471.29,398.33,471.77,401.36,472.24,404.39ZM366.39,633h.16c4.53-1.19,2.2-.58-.13,0l-.31.23ZM179.71,321.53l-11.51.84.13,1.12,11.35-2,.28-.19Zm52.9,311.52.27.12c-1.44-.45-.87-.27-.3-.09,3,.23,6,.45-.15,0C238.6,632.5,235.6,632.78,232.61,633.05Zm-137.76-2c-.78-.21-1.56-.41-.29-.08l.32,0,17.18,4,.21-1Zm379.37-8-18.73,3.52.26,1.16,18.45-4.71.35-.15ZM226.62,322.51c1.17.09,2.35.17.12,0,2.22-.49,1-.23-.15,0L208.79,321l-.08,1.5ZM370.39,647l-20.71,1c.09.77.17,1.53.25,2.29l20.46-3.3c1.77-.11,3.53-.23.06,0C373.88,646.47,372.14,646.75,370.39,647Zm43.93-2,30.36-2.75-.1-.77L408,644.3c0,.5.11,1,.16,1.5l6.13-.77Zm-1-92.86-23,7,0,0-12,3-.35.18.32-.21c13.24,2.26,24.19-3.53,34.94-10Zm16-2,61.44,10.65c-18.05-5.11-36.36-8.85-54.73-12.27-2.07-.39-4.47,1-6.72,1.61l-.3.25ZM204.67,327.52v0c-29,1.52-72.4,11.91-75.37,18.44,44.27-17.78,91.49-14.07,137.12-21.6Zm60,11.28c-39.15,2.91-78.11,3.31-118.25,13.93,35.3,12.26,69.27,19.67,103.92,24.46C255.66,364.37,269,355.5,264.68,338.8Zm53.73,224.1-.24.9,23.43-1.28-.05-.91ZM211.54,336.31h19.08l-.15-1ZM358.22,633.09H341l.18,1.89ZM298.85,321.36c2.87-13.46,3.84-18,4.88-22.87-.31-.41-1-1.33-1.59-2C301.46,301.59,300.75,306.93,298.85,321.36Zm197.48,86.06,1.88.35q1.76-6.15,3.5-12.28l-1.2-.38ZM416.58,629.07l.08-1-17.59,2.56.12.85Zm-60-63.17.15.91,15.39-2.16c-.06-.39-.11-.78-.17-1.16Zm-92-245.06-.12-1.8-15.06,1.8Zm313.25,45.59-.81.16q1,6.69,2,13.38l1-.16Zm-9,37.92,1.27.24q1.29-6.06,2.59-12.12l-.74-.16ZM262.55,335c-.07-.48-.14-1-.2-1.44l-17.56,2.93Zm39-67.15-1.84.39c.8,2.75,1.61,5.5,3.53,12C302.36,273.48,302,270.66,301.59,267.83Zm-132.8,69.42.2,1,8-1.26-.17-1ZM395.31,646.54h-12.2c0,.36.05.72.07,1.08Zm-1.13-15.65c0-.33,0-.65,0-1H379.28ZM234.07,647.51l-14.43-.88,0,.88Zm5.54-327.2Zm28.3,23.9,1.54.3.47-4.06-1.58-.2C268.19,341.57,268.05,342.89,267.91,344.21ZM475,386.65l-1.14-.11-.49,5.9.84.08ZM343.77,321l0-1-3.61.25.05.76Zm22.5,55.91-.1-.85-6.63.92.06.51Zm-62.12-94.94-1.36-.08c0,1.19,0,2.38,0,3.56a4.19,4.19,0,0,0,1,.23C304,284.37,304.05,283.15,304.15,281.94ZM267.23,648.41v.24h6.66v-.24ZM244.74,336.1l.11-1.07-10-.54Zm96-.39-.14-1-13.62,1ZM469,530l.56-.52-5.66-1.07-.09.48Zm13.74-155.68c0-4.17,0-2.42.06-.67C483,371.92,483.14,370.18,482.78,374.33ZM455.93,544.88l.22-1L445.8,543Zm12.51-121.56-.79.07c.06.88.13,1.75.2,2.63l.83-.07ZM153.09,331.63l.16.65,4.06-.95-.16-.69Zm315,84.41c1.52-4.68,1.33-4.08,0,0ZM425.63,554.92l-.74-.27c-.36.94-.72,1.87-1.07,2.81l.8.29C425,556.81,425.3,555.86,425.63,554.92ZM280.94,633.43Zm-1.5-417.28h0C276.05,209.94,275.53,209,279.44,216.15Zm101.8,416.29.07.11h2.29v-.11Zm88.12-14.17Zm20.11-85.75-.17.76,2.21.26.1-.7ZM173.72,345.07Zm104.54,4.59.6.3,1-2-.67-.33C278.91,348.28,278.58,349,278.26,349.66Zm40.12-14.76ZM315.88,320l0,.38,10.55-.84ZM394.6,587.19l-.26-.63L385,590.67ZM272.51,599.71Zm-59,47-.06-.71-2-.23-.08.64ZM548.43,389.57c.61-1.14.92-1.46.85-1.63a8,8,0,0,0-.85-1.34ZM490,552.82l0-.65-1.68-.28-.09.57Zm-52.29,77.64ZM278.87,321.75a4.42,4.42,0,0,0,.31-1.07c0-.19-.2-.36-.31-.55Zm27,241.1ZM176.6,341.72Zm247.06,286Zm-145.59-319a2.76,2.76,0,0,0-.2.76c0,.2.23.39.35.58A6.88,6.88,0,0,0,278.07,308.66ZM154.39,645.41a5.27,5.27,0,0,0,1.25.34c.19,0,.37-.22.56-.34ZM271.07,328h0C270.28,326.13,270.14,325.77,271.07,328Zm78.59,49.84H349C350.58,377.69,350.12,377.74,349.66,377.87Zm-173-51.57Zm349,35.15ZM201.89,338a2.21,2.21,0,0,0,.73.15c.2,0,.39-.21.58-.32A6.53,6.53,0,0,0,201.89,338Zm285.66,92.48c.21-2.64.18-2.21,0,0C488.31,428.37,488.44,428,487.55,430.46Zm25.87,59.75c.22-.71.11-.35,0,0ZM327.87,649.6ZM202.7,323c.05.09.11.26.14.26.27-.05.53-.14.79-.21A7.25,7.25,0,0,0,202.7,323ZM337.46,639.7v-.25l-1.16-.06v.25Zm156-228.77Zm-3.69,4.41a2,2,0,0,0-.29.14c.07.26.16.52.25.78A5.67,5.67,0,0,0,489.72,415.34ZM453.5,619.58ZM399.19,335.1v-.21h-.84v.21Zm-218-6c.22-.06.44-.12-.29.07C181.52,328.73,181.31,328.85,181.15,329.06Zm321,62.59.31-.23-.33-.16ZM260.14,160a1.68,1.68,0,0,0-.27-.44A1.34,1.34,0,0,0,260.14,160Zm35,106.78a1.17,1.17,0,0,0-.26-.44A1.5,1.5,0,0,0,295.1,266.78ZM236.32,648.47a3.82,3.82,0,0,0,.68,0A3.11,3.11,0,0,0,236.32,648.47Zm60.94-84.72a1.64,1.64,0,0,0,.52-.35A2.16,2.16,0,0,0,297.26,563.75ZM472.81,428.14a1.2,1.2,0,0,0-.15.45A1.33,1.33,0,0,0,472.81,428.14ZM383.61,319a1.36,1.36,0,0,0-.48-.16A1.3,1.3,0,0,0,383.61,319Zm114.82,66.6c-.5.16-.28.09-.07,0C498.25,385.51,498.13,385.43,498.43,385.63Zm80.21,6.06.48.56a3.21,3.21,0,0,0,0-.69A3.35,3.35,0,0,0,578.64,391.69ZM342.1,378a1.1,1.1,0,0,0,.44.13c.1,0,.17-.19.26-.29A3.38,3.38,0,0,0,342.1,378Zm96.09,163.59-.11.22.46,0ZM291.7,562.52l-.46,0,.28.22Zm61.54,7,.14.22.28-.15Zm80.12,57.16.1-.21-.45,0Zm-249.85,6.05a1.59,1.59,0,0,0,.45-.27A1.38,1.38,0,0,0,183.51,632.73ZM474,632.48l.37.16.05-.23Zm-226.5,1.23a1.38,1.38,0,0,0,.42-.25A1.66,1.66,0,0,0,247.46,633.71Zm76.29.85a1.21,1.21,0,0,0-.35-.09c-.08,0-.14.13-.21.2A3.47,3.47,0,0,0,323.75,634.56Zm141.56,3.9-.33.15.43.06Zm-42.78,1.89a1.81,1.81,0,0,0-.5.33A1.67,1.67,0,0,0,422.53,640.35Zm-22.11,6.29.1-.2-.44.06ZM286.55,562l.31,0-.11-.28ZM540.81,370.94l-.26-.16,0,.24ZM197.17,334.09l.15-.21H197Zm178,256.63-.06.31.3-.11ZM520.34,363.84l.23-.19-.24-.1Zm-117.6-43.73.3-.08-.22-.19Z"/><path d="M358.43,119.81c-11.36,24.07-19.31,49-20,75.91l0,0c.92,14.76,4.18,28.69,13.07,41,.82,1.13-1,6.07-2.61,6.73-9.38,3.82-14-4-19.5-9.09-35.32-33-34.66-72.93-16.6-112.38,12.29-26.87,26.3-51.79,19.38-82.53l.58-.9,1.72-.59,2,4,1,3,1,3c.33,1.33.66,2.66,1,4,.08.57.16,1.14,0,.1.4,1,.18.44,0-.08-.33-1.33-.67-2.65-1-4-.33-1-.65-2-1-3s-.67-2-1-3l-2-4c-4-7.8-6.08-17.33-17-19-.39-.35-.77-.71-.1-.08-.83-.38-.35-.17.13.05.77.93,1.55,1.85,2.32,2.77l-.63.51L312.48,17h0c9.88-5.79,15.22,3.24,21.54,7.28,14.3,9.14,23.45,23,31.4,37.68l-.06,0,1,3,0,0V93.7c1.13-3.25,1.76-5,2.38-6.81L371.68,88Q365,103.93,358.4,119.84l-1-1c.08-.47.17-.94.63-3.55-1.12,2.53-1.35,3-1.58,3.55l-1,1-1,2-2,5,0,0,2-5,1-2,1-1h1Zm-28,103.86v0Zm-8-2h0l-1-1c-.63-.55-1.27-1.1,0,0-1.55-.67-.78-.33,0,0Zm3-4,1,1,.23.29-.25-.27c-.34-.33-.68-.67-1-1Zm-6-13h0l-1-1,0,0Zm-3-8v0Zm11-91.87,1-1v0l-1,1Zm-1,107.85h0l-.16-.32Zm24-82.87c-.33.67-.67,1.33-1,2q-2.54,5.64-5.08,11.27l1.22.49,3.84-11.78c.33-.67.66-1.34,1-2Zm13-25.94.13-.26-.15.23-.15.28Zm-15,137.75,1-2c.16-.27.32-.55.06-.11.15-.49.06-.18,0,.13l-1,2-.31.22Zm-3-11h0l-1-2c-.26-.5-.52-1-.05-.1-.76-.68-.34-.3.08.08C344.78,229.31,345.1,230,345.42,230.66ZM322.49,115.85c-.15.29-.29.57-.05.08-.08.54,0,.22,0-.1l.24-.32Zm15,28c-.19.31-.38.62-.08.12-.15.56-.05.21,0-.15l1-2c.29-.5.57-1,.08-.13.24-1,.1-.4,0,.17Zm1,95.85-.34-.15.38.11c.23.2.45.39.12.11C339,239.88,338.73,239.77,338.44,239.66Zm-2-100.87c-.14.29-.28.58,0-.06-.19.69-.1.38,0,.06.33-.67.65-1.35,1-2l3-1-.23.33.21-.36c1.3-2.29,2.67-4.56,3.88-6.9,12-23,26.63-45.56,12.11-72.95h0c-6.21-11.2-13.52-21.42-25-28h0l3,4v1c14.47,24.07,13,47.69-2,70.91l0,0c-23.14,38.67-26.74,85.89-7.55,104.35-2.25-32,3.44-62,21.22-88.8q-4.33,8.72-8.68,17.43Zm-25,67.91,0,0,4,7c.22.5.44,1,.07.17.64.66.26.27-.12-.13Zm23-50.9q-2.21,6.91-4.42,13.84l1.65.44q1.37-7.17,2.72-14.32c.24-.51.47-1,.09-.17C334.67,154.67,334.58,155.24,334.48,155.8Zm-4,21c-4,6.66-5.75,13.53-2,20.94v14.54l2.75-.24q-1.36-7.15-2.75-14.31,1-10.47,2-21c.14-.27.28-.55.07-.14C330.6,176.15,330.54,176.46,330.49,176.77Zm-23.21-14.21.92.15q1.07-7.56,2.12-15.12l-1.09-.17Zm.9,22.9,1-.17-2-9.79-.63.1Zm31.17-17.93h.58v-4.11h-.58ZM328,106.72Zm-14.44,97.61c4.9,4.14,5.17,4.38,0,0Zm28.19-49.23-.59.37.56.35A4.2,4.2,0,0,0,341.74,155.1Zm-36.51,15.38Zm53.64-55c2.18-6.74,2.31-7.12,0,0C360.88,108.23,360.77,108.6,358.87,115.43Zm7-17.22a2.92,2.92,0,0,0,0-.66A3.65,3.65,0,0,0,365.91,98.21Zm-29.08,83.85a3.07,3.07,0,0,0,0-.68A3.11,3.11,0,0,0,336.83,182.06Zm-.69,10.8.21.26.13-.29Z"/><path d="M116.82,399.4v5.4l-1.08,0-1.83-30.56,2.87-.17v25.35l-.19-.3Z"/><path d="M322.46,28.94c-.65-2-1.31-4-2-6l0,0q6.15,7.75,12.29,15.53l-.58.9L324.43,31l.07-.11-.05-1,.06.08-1.06-1.05.06,0h-1.07Z"/><path d="M65.87,597.09l9,7.35c-8.16-3.19-15.69-7-15.94-17.34l0,0,7,10Z"/><path d="M11.63,601.48,3.2,590.12l1.32-.94,7.83,11.57Z"/><path d="M24,610.07l-9.39-5.61.76-.76,8.6,6.4Z"/><path d="M118.82,416.37c-.77-2-1.55-4,0-.09v.12Z"/><path d="M242.85,556.19l6.43,1-.17,1.17-6.62-.91Z"/><path d="M365.44,61.94l-2.22-7.87.34-.33q.9,4.07,1.82,8.15Z"/><path d="M266.54,560.1l-2.87-.6.17-1,2.79.32Z"/><path d="M531.94,333.71h3v.58h-3Z"/><path d="M368.59,84.22c1.77-7.48,1.57-6.66,0,0Z"/><path d="M517.39,633.25l-3.24.79,0,0q0-.49,0-1l.05,0,2.55-.19C517,633,517.18,633.11,517.39,633.25Z"/><path d="M514.15,634l-3,1v0l3-1Z"/><path d="M551.31,460.45l-1.11,2-.21-.26,1-1.86Z"/><path d="M176.53,545l.2-1.85,0,0,.15,2.06Z"/><path d="M268.82,307.78a7.76,7.76,0,0,1-.69.4c.06-.28.14-.54.21-.81Z"/><polygon points="366.42 64.92 366.58 64.57 366.39 64.9 366.42 64.92"/><path d="M544.39,469.56l-1.29,1.73h0v-2l0,.05.77-.26Z"/><path d="M530.12,629l-.27.24.31-.2Z"/><path d="M543.1,471.29l-1,1v0l1-1Z"/><path d="M320.5,23l-1.3-.72.63-.51.63,1.26Z"/><path d="M323.47,29.94c-.33-.33-.67-.66-1-1l0,0h1.07l-.06,0v1Z"/><path d="M324.43,31l-1-1,0,0h1.06l-.06-.07a6.31,6.31,0,0,0,.05,1Z"/><polygon points="363.22 54.07 363.23 53.75 363.55 53.74 363.22 54.07"/><path d="M171.81,537.08c0,.42,0,.83,0,1.24l-.2-.32c0-.22,0-.44,0-.65Z"/><path d="M176.73,543.17l0,0Z"/><path d="M269.53,179.75l.05,0Z"/><path d="M175.72,552.19l0,0Z"/><path d="M423.33,372.47l-.05-.05Z"/><path d="M178.72,573.15l.82-1.14.32.32-1.16.8Z"/><path d="M11.86,574.27l0-1.33c.11.21.23.41.35.62l-.07.36Z"/><path d="M178.7,573.13l0,0Z"/><path d="M197.69,577.16l0,0Z"/><path d="M188.67,580.15l0,0Z"/><path d="M194.67,585.1l0,0Z"/><path d="M58.92,587.1l0,0Z"/><path d="M589.06,593.09l0,0Z"/><path d="M65.91,597.13l0,0Z"/><path d="M398.36,317.54l0,0Z"/><path d="M586,599.11l0,0Z"/><path d="M12.35,600.75l.92,1.07-.61.62-1-1Z"/><path d="M584.86,601.89h.43v.43Z"/><path d="M13.63,603.46l-1-1,.61-.62,1.07.93Z"/><path d="M14.58,604.46c-.31-.34-.63-.67-.95-1l.71-.71,1,1Z"/><path d="M23.94,610.1l0,0Z"/><path d="M71.86,630.07l0,0Z"/><path class="cls-1" d="M330.47,379.44H263.22l6.29-2.31c-.24-1.23-.47-2.44-.26-1.32,4.78-5.57,8.54-10,12.3-14.36l0,0,17-24.47L450.8,347.23,404,340.33c.07-.47.15-.93.22-1.39l51,8.55,0,0-71.43,25.41-2.31.31,2.41-1.8-65.41,6.67-.09,1.38h12.08Zm-28-1,.43.14-.47-.09-.17,0Z"/><path class="cls-1" d="M517.12,374.43l12.12-6.1c22.59,7.76,21.29,26.95,16.68,43.35-4.18,14.84-14.93,27.82-22.78,41.63h0c-12.22,13.19-24.95,25.65-46.35,30.22,18.39-35.7,13.63-77.8,40.31-109.06Z"/><path class="cls-1" d="M526.12,460.32l24-32.29v3.12c.86,4.91-8.18,5.2-4.95,12.51,1.89-2.06,3.38-3.69,4.88-5.31h0c-3.51,13.29-13.19,22.33-22,32l0,0-27,23v0c-15.63,8.36-31.8,14.92-49.93,15l0,0c15.05-29.18,24.41-59.89,25-92.95l-1.65.41c.74-7.45,1.5-15,2.13-21.26,11.68-19.77,21.88-39.36,43.21-49.05,26.71-12.15,50.29,1.83,52.07,31l0,0c-1.41-2.38-2.31-2.25-2.31.87-3.06-5.28,3.06-12.6-7.52-18.11,10.77,19.81.31,37.38,1.84,55.19l0,0-3,0,0,0c-.36-3.63-.73-7.25-1.09-10.88l.07-.08c6.5-4.52,3.83-11.57,2.91-16.67-1.89-10.51-7.22-19.81-17.39-25.09-3.07-1.59-6.32-2.82-9.49-4.21l0,0c-9.33-.23-18.43.43-26,6.95v0l-17,20,0,0q-9.54,44.2-19.09,88.43l1.95.58,4.17-12.08,0,0c-2,9.22-3.93,18.44-5.95,27.93,13.92-2.69,26.35-10.47,38.91-17.95h0l13-11Z"/><path class="cls-1" d="M280.56,340.5c.88-17.15,2.44-34.36-4-50.94l0,0c0-18-9-33.24-15.36-49.27-1.16-2.91-2.4-5.79-3.61-8.68l0,0-1-2,0,0-3-3,0,0c-4.82-11-9.65-22-14.57-33.27.18,2.28.37,4.79.57,7.3l0,0c-5.15-12.82-2.36-25,3-36.94-.25,1.24-.5,2.48-2.06,10.27,3.42-8.63,4.36-11,6.45-16.3l-4.44,6.1c3.43-15.44,15.66-24.53,25.86-35.85-.71,3.31-1.3,6.08-1.89,8.85l0,0c-18.92,36.28-2.83,66.8,15.95,96.88v0l2.35,4.46c8.68,20.56,12.81,42.12,10.61,68.56-2.1,9.49-5.89,22.79-15,33.8ZM238,190.49c1.16-6.89,1-5.93,0,0C239.9,184.84,240.19,184,238,190.49Z"/><path class="cls-1" d="M264.68,338.8c4.36,16.7-9,25.57-14.33,38.39-34.65-4.79-68.62-12.2-103.92-24.46C186.57,342.11,225.53,341.71,264.68,338.8Z"/><path class="cls-1" d="M204.67,327.52l61.74-3.18c-45.63,7.53-92.85,3.82-137.12,21.6,3-6.53,46.34-16.92,75.37-18.44Z"/><path class="cls-1" d="M429.29,550.17c2.25-.58,4.65-2,6.72-1.61,18.37,3.42,36.68,7.16,54.73,12.27L429.3,550.18Z"/><path class="cls-1" d="M378.41,562.18l12-3,0,0,23-7h0c-10.75,6.45-21.7,12.24-34.94,10Z"/><path class="cls-1" d="M564.09,414.37l2,0,0,0-11.31,26.8-1.93-.8q5.63-13,11.24-26Z"/><path class="cls-1" d="M553.1,417.37c3.71-11.49,8.8-22.78,4-36.11,3.95,2.65,4.58,10,3,22.16l-.07.08q-3.46,6.93-6.94,13.84Z"/><path class="cls-1" d="M414.33,645l-6.13.77c-.05-.5-.11-1-.16-1.5l36.54-2.78.1.77L414.32,645c-.74-.33-1.47-.66,0,0C412.71,644.91,413.52,645,414.33,645Z"/><path class="cls-1" d="M414.35,366.47l30.92-11,0-.05-30.92,11Z"/><path class="cls-1" d="M370.39,647l-20.46,3.3c-.08-.76-.16-1.52-.25-2.29l20.71-1Z"/><path class="cls-1" d="M474.23,349.48c6,6,0,12.95.93,15.6-.16-2.72-.55-9.16-.94-15.61Z"/><path class="cls-1" d="M318.41,562.9l23.14-1.29.05.91-23.43,1.28Z"/><path class="cls-1" d="M211.54,336.31l18.93-1,.15,1Z"/><path class="cls-1" d="M484.21,363.46q-1.2-9.46-2.42-18.93l1.47-.13.93,19.08Z"/><path class="cls-1" d="M358.22,633.09l-17,1.89-.18-1.89Z"/><path class="cls-1" d="M298.85,321.36c1.9-14.43,2.61-19.77,3.29-24.91.55.71,1.28,1.63,1.59,2C302.69,303.38,301.72,307.9,298.85,321.36Z"/><path class="cls-1" d="M496.33,407.42l4.18-12.31,1.2.38q-1.75,6.13-3.5,12.28Z"/><path class="cls-1" d="M416.58,629.07l-17.39,2.44-.12-.85,17.59-2.56Z"/><path class="cls-1" d="M356.56,565.9l15.37-2.41c.06.38.11.77.17,1.16l-15.39,2.16Z"/><path class="cls-1" d="M226.62,322.51H208.71l.08-1.5,17.8,1.54Z"/><path class="cls-1" d="M514.17,634.06l-3,1-19,3,0,0,21.91-5Q514.17,633.56,514.17,634.06Z"/><path class="cls-1" d="M265.55,278.6l4.2,15.41-1.68.36-2.49-15.79Z"/><path class="cls-1" d="M122.77,431.39l4.74,19.52-1.06.22q-1.82-9.88-3.65-19.77Z"/><path class="cls-1" d="M474.2,623.05l-18.45,4.71-.26-1.16,18.73-3.52Z"/><path class="cls-1" d="M264.53,320.84H249.35l15.06-1.8Z"/><path class="cls-1" d="M577.78,366.43,580,379.81l-1,.16q-1-6.69-2-13.38Z"/><path class="cls-1" d="M568.74,404.35l3.12-12,.74.16q-1.3,6.06-2.59,12.12Z"/><path class="cls-1" d="M262.55,335l-17.76,1.49,17.56-2.93C262.41,334,262.48,334.5,262.55,335Z"/><path class="cls-1" d="M94.85,631.07l17.42,2.86-.21,1-17.18-4Z"/><path class="cls-1" d="M301.59,267.83c.39,2.83.77,5.65,1.69,12.41-1.92-6.52-2.73-9.27-3.53-12Z"/><path class="cls-1" d="M232.61,633.05c3-.27,6-.55-.18,0,6.17.46,3.16.24.15,0Z"/><path class="cls-1" d="M168.79,337.25l8-1.27.17,1-8,1.26Z"/><path class="cls-1" d="M120.8,417.38q1,7,2,14l0,0q-1-7-2-14Z"/><path class="cls-1" d="M136.77,621.08l13.5,1.86-.17.95-13.3-2.84Z"/><path class="cls-1" d="M395.31,646.54l-12.13,1.08c0-.36,0-.72-.07-1.08Z"/><path class="cls-1" d="M179.68,321.5l-11.35,2-.13-1.12,11.51-.84Z"/><path class="cls-1" d="M261.54,249.66l5,11,0,0q-2.49-5.47-5-11Z"/><path class="cls-1" d="M394.18,630.89l-14.9-1h14.91C394.19,630.24,394.18,630.56,394.18,630.89Z"/><path class="cls-1" d="M438.3,365.47l11-4,0,0-11,4Z"/><path class="cls-1" d="M234.07,647.51H219.61l0-.88Z"/><path class="cls-1" d="M366.42,633.07c2.33-.61,4.66-1.22.13,0h-.16Z"/><path class="cls-1" d="M239.61,320.31c3.41.61,1.19.22,0,0Z"/><path class="cls-1" d="M472.24,404.39c-.47-3-.95-6.06,0-.2-.28-5.93-.14-2.86,0,.22Z"/><path class="cls-1" d="M583.05,569.13c-2.35-1.64-4.71-3.28-.07,0-3-5-1.46-2.46,0,.08Z"/><path class="cls-1" d="M267.91,344.21c.14-1.32.28-2.64.43-4l1.58.2-.47,4.06Z"/><path class="cls-1" d="M267.56,144.79q-1,5.28-2.05,10.56l-1-.26q1.53-5.15,3.07-10.28Z"/><path class="cls-1" d="M539.13,433.36c1.22-2.78,2.44-5.56.1-.22,3.09-4.93,1.49-2.37-.12.19Z"/><path class="cls-1" d="M475,386.65l-.79,5.87-.84-.08.49-5.9Z"/><path class="cls-1" d="M408.32,367.44c-2.91.86-5.83,1.71-.11,0-5.86,1-2.87.48.12,0Z"/><path class="cls-1" d="M524.13,567.16l7,6,0,0-7-6Z"/><path class="cls-1" d="M343.77,321h-3.61l-.05-.76,3.61-.25Z"/><path class="cls-1" d="M366.27,376.88l-6.67.58-.06-.51,6.63-.92Z"/><path class="cls-1" d="M165.72,537.21c1.74,1.28,3.49,2.56.11.08,2.72,3.19,1.32,1.54-.09-.1Z"/><path class="cls-1" d="M304.15,281.94c-.1,1.21-.2,2.43-.31,3.71a4.19,4.19,0,0,1-1-.23c0-1.18,0-2.37,0-3.56Z"/><ellipse class="cls-1" cx="270.56" cy="648.53" rx="4.71" ry="0.16"/><path class="cls-1" d="M244.74,336.1l-9.85-1.61,10,.54Z"/><path class="cls-1" d="M487.17,619.05c-1.66,1-3.33,1.93-.15.09-3.55,1-1.68.45.18,0Z"/><path class="cls-1" d="M340.74,335.71H327l13.62-1Z"/><path class="cls-1" d="M469,530l-5.19-1.11.09-.48,5.66,1.07Z"/><path class="cls-1" d="M458.28,535.17c-2.5-.36-5-.72-.39-.06-4.49-1.27-2.07-.58.36.1Z"/><path class="cls-1" d="M377.39,598.11l9-2,0,0-9,2Z"/><path class="cls-1" d="M482.78,374.33c.36-4.15.21-2.41,0-.67C482.78,371.91,482.78,370.16,482.78,374.33Z"/><path class="cls-1" d="M455.93,544.88,445.8,543l10.35.9Z"/><path class="cls-1" d="M465.26,346.5l.11-.07c3.69-1.19,1.78-.57-.13,0Z"/><path class="cls-1" d="M504.18,378.44c.78-1.55,1.56-3.1,0-.08,2.17-2.58,1.06-1.26-.05.06Z"/><path class="cls-1" d="M572.05,376.44c.3,1.86.6,3.71,0,.22v-.24Z"/><path class="cls-1" d="M276.56,289.56l-3-7,0,0q1.48,3.5,3,7Z"/><path class="cls-1" d="M468.44,423.32l.24,2.63-.83.07c-.07-.88-.14-1.75-.2-2.63Z"/><path class="cls-1" d="M533.1,597.1c-1.08,1.54-2.16,3.09-.18.26l.23-.22Z"/><path class="cls-1" d="M153.09,331.63l4.06-1,.16.69-4.06.95Z"/><path class="cls-1" d="M468.11,416c2.41-4.13,2.13-3.66,0,0C469.44,412,469.63,411.36,468.11,416Z"/><path class="cls-1" d="M425.63,554.92c-.33.94-.67,1.89-1,2.83l-.8-.29c.35-.94.71-1.87,1.07-2.81Z"/><path class="cls-1" d="M489.23,505.27c1.3-.88,2.59-1.75.18-.12,2.74-.93,1.26-.43-.22.07Z"/><path class="cls-1" d="M280.94,633.43Z"/><path class="cls-1" d="M154.77,346.5c1.8-.57,3.61-1.13.21-.07,3.51-.46,1.63-.21-.25,0Z"/><path class="cls-1" d="M279.44,216.15c-3.91-7.18-3.39-6.21,0,0Z"/><path class="cls-1" d="M381.24,632.44h2.36v.11h-2.29Z"/><path class="cls-1" d="M243.61,212.66q1.5,3,3,6h0c-1-2-2-4-3-6Z"/><path class="cls-1" d="M500.22,631.08c1.49-.63,3-1.26.21-.09,2.95-.52,1.35-.24-.25,0Z"/><path class="cls-1" d="M395.34,592.11l-5,2h0l5-2Z"/><path class="cls-1" d="M469.36,618.27Z"/><path class="cls-1" d="M370.39,647c1.75-.28,3.49-.56.06,0,3.47-.22,1.71-.1-.06,0Z"/><path class="cls-1" d="M337.43,568.17c1.78.15,3.56.29.4,0,3.11.63,1.37.28-.36-.07Z"/><path class="cls-1" d="M578.06,404.4c-.3-1.54-.61-3.08,0-.13v.15Z"/><path class="cls-1" d="M489.47,532.52l2.14.32-.1.7-2.21-.26Z"/><path class="cls-1" d="M418.31,570.15c-.57,1.39-1.14,2.78-.06.13-1.67,2.33-.79,1.11.08-.11Z"/><path class="cls-1" d="M173.72,345.07Z"/><path class="cls-1" d="M157.78,340.52c1-.59,2.05-1.19.14-.08,2.14-.44,1-.2-.18,0Z"/><path class="cls-1" d="M254.59,233.65c.9,1.21,1.79,2.43-.05-.07,1.3,2.81.67,1.45,0,.08Z"/><path class="cls-1" d="M489.16,613.05c-1.47.6-3,1.2-.23.1-2.87.51-1.3.23.27,0Z"/><path class="cls-1" d="M278.26,349.66c.32-.69.65-1.38,1-2.06l.67.33-1,2Z"/><path class="cls-1" d="M318.38,334.9Z"/><path class="cls-1" d="M530.12,543.2c1.6.22,3.19.44.15,0,2.93.92,1.4.44-.13,0Z"/><path class="cls-1" d="M226.59,322.55c1.19-.26,2.37-.52.15,0,2.23.16,1,.08-.12,0Z"/><path class="cls-1" d="M466.23,511.23l-6,1,.05,0,6-1Z"/><path class="cls-1" d="M575.05,357.47c.6,1.13,1.19,2.26.05.11.65,2.34.31,1.1,0-.13Z"/><path class="cls-1" d="M315.88,320l10.57-.46-10.55.84Z"/><path class="cls-1" d="M484.22,506.22c-1.13.22-2.26.44-.2,0h.16Z"/><path class="cls-1" d="M394.6,587.19,385,590.67l9.37-4.11Z"/><path class="cls-1" d="M272.51,599.71Z"/><path class="cls-1" d="M213.52,646.76l-2.16-.3.08-.64,2,.23Z"/><path class="cls-1" d="M284.55,340.5c.66-1.33,1.33-2.65,2-4l0,0-2,4Z"/><path class="cls-1" d="M156.78,325.54c.73-.54,1.46-1.07.13-.1l-.17.05Z"/><path class="cls-1" d="M330.46,379.43c1.39-.26,2.78-.52-.17,0,3-.23,1.59-.12.18,0Z"/><path class="cls-1" d="M548.43,389.57v-3a8,8,0,0,1,.85,1.34C549.35,388.11,549,388.43,548.43,389.57Z"/><path class="cls-1" d="M490,552.82l-1.79-.36.09-.57,1.68.28Z"/><path class="cls-1" d="M480.24,461.34c.24-1.35.47-2.71.05-.27.89-2.32.4-1-.09.24Z"/><path class="cls-1" d="M316.45,602.07c-1.4.26-2.8.53-.24,0h.27Z"/><path class="cls-1" d="M437.66,630.46Z"/><path class="cls-1" d="M408.33,367.46l6-1,0,0-6,1Z"/><path class="cls-1" d="M278.87,321.75v-1.62c.11.19.3.36.31.55A4.42,4.42,0,0,1,278.87,321.75Z"/><path class="cls-1" d="M259.55,262.64c.51.94,1,1.89.07.14.48,1.9.22.87,0-.17Z"/><path class="cls-1" d="M305.89,562.85Z"/><path class="cls-1" d="M556.08,426.36c-.65,1.35-1.31,2.69-2,4l0,0c.67-1.32,1.34-2.65,2-4Z"/><path class="cls-1" d="M520.17,369.46l.16-.09c1.86-.48.83-.21-.2.06Z"/><path class="cls-1" d="M257.59,257.6q1,2.52,2,5l0,0-2-5Z"/><path class="cls-1" d="M254.56,256.62c.54.92,1.08,1.84.12.19.51,1.82.22.8-.07-.23Z"/><path class="cls-1" d="M471.22,437.34c.11-1.1.21-2.21,0,.09.49-2.25.25-1.16,0-.08Z"/><path class="cls-1" d="M176.6,341.72Z"/><path class="cls-1" d="M368.36,556.2c1.12.08,2.24.16.35,0,1.85.42.77.17-.31-.08Z"/><path class="cls-1" d="M440.26,367.43l-5,2,0,.05,5-2Z"/><path class="cls-1" d="M423.66,627.68Z"/><path class="cls-1" d="M278.11,308.67a11.92,11.92,0,0,1,.11,1.33c-.12-.19-.33-.38-.35-.58A1.83,1.83,0,0,1,278.11,308.67Z"/><path class="cls-1" d="M154.39,645.41h1.81c-.19.12-.37.32-.56.34A5.27,5.27,0,0,1,154.39,645.41Z"/><path class="cls-1" d="M271.07,328c-.93-2.26-.79-1.9,0,0Z"/><path class="cls-1" d="M349.66,377.83c.46-.09.92-.14-.7,0C350.6,377.87,350.13,377.87,349.66,377.83Z"/><path class="cls-1" d="M176.63,326.3Z"/><path class="cls-1" d="M495.17,391.41c-.34.76-.69,1.52-.06.13-1.15,1-.52.45.11-.09Z"/><path class="cls-1" d="M525.67,361.45Z"/><path class="cls-1" d="M201.9,337.93c.43-.07.86-.09,1.3-.12-.19.11-.38.3-.58.32A1.43,1.43,0,0,1,201.9,337.93Z"/><path class="cls-1" d="M484.22,507.25v-1l0,0,5.05-1,0,0-5,2Z"/><path class="cls-1" d="M453.29,640.07c1-.28,2.07-.56.23-.06l-.26,0Z"/><path class="cls-1" d="M487.55,430.46c.89-2.47.76-2.09,0,0C487.73,428.25,487.76,427.82,487.55,430.46Z"/><path class="cls-1" d="M195.68,580.12q-2-1.5-4-3l0,0,4,3Z"/><path class="cls-1" d="M513.42,490.21Z"/><path class="cls-1" d="M525.14,486.28c-.46.91-.91,1.83,0,0-1.41,1.54-.72.79,0,0Z"/><path class="cls-1" d="M327.87,649.6Z"/><path class="cls-1" d="M523.13,481.27c-.64.73-1.28,1.47-.06.08-1.55,1-.73.47.08-.06Z"/><path class="cls-1" d="M94.88,631l-.32,0c-1.27-.33-.49-.13.29.08Z"/><path class="cls-1" d="M491.2,630.05c-.82.34-1.63.69-.16.06l.19,0Z"/><path class="cls-1" d="M202.71,322.94c.3,0,.61,0,.92.07-.26.07-.52.16-.79.21C202.81,323.22,202.75,323.05,202.71,322.94Z"/><path class="cls-1" d="M337.46,639.7l-1.16-.06v-.25l1.16.06Z"/><path class="cls-1" d="M470.25,351.48l4-2h0l-4,2Z"/><path class="cls-1" d="M493.41,410.93Z"/><path class="cls-1" d="M489.74,415.34c0,.31,0,.61-.06.92-.09-.26-.18-.52-.25-.78A1.63,1.63,0,0,1,489.74,415.34Z"/><path class="cls-1" d="M558.08,422.37l-2,4,0,0c.66-1.34,1.33-2.67,2-4Z"/><path class="cls-1" d="M551,460.29l-1,1.86-.66-1.53Z"/><path class="cls-1" d="M474.2,510.22c-.56.17-1.12.33-.05,0-1.11-.12-.52-.06.07,0Z"/><path class="cls-1" d="M316.48,602.11l5-1,0,0-5,1Z"/><path class="cls-1" d="M453.5,619.58Z"/><path class="cls-1" d="M131.75,620.1l5,1,0,0-5-1Z"/><path class="cls-1" d="M399.19,335.1h-.84v-.21h.84Z"/><path class="cls-1" d="M561.07,342.5c.53.24,1,.47,0,0,.43,1.12.21.54,0,0Z"/><path class="cls-1" d="M181.13,329c.18-.17.39-.29-.27.11C181.59,328.94,181.37,329,181.13,329Z"/><path class="cls-1" d="M267.58,144.81l1-4h0l-1,4Z"/><polygon class="cls-1" points="502.11 391.65 502.09 391.26 502.42 391.42 502.11 391.65"/><path class="cls-1" d="M543.12,471.3l-1,1,1-3C543.12,470,543.12,470.62,543.12,471.3Z"/><path class="cls-1" d="M280.52,340.46c-.23.52-.46,1,0,.07-1.1.38-.51.18.08,0Z"/><path class="cls-1" d="M260.11,160a1.42,1.42,0,0,1-.21-.47A1.54,1.54,0,0,1,260.11,160Z"/><path class="cls-1" d="M275.55,291.57c.25.53.51,1.07,0,0,.33,1.11.16.54,0,0Z"/><path class="cls-1" d="M295.08,266.79a1.28,1.28,0,0,1-.21-.46A1.28,1.28,0,0,1,295.08,266.79Z"/><path class="cls-1" d="M471.23,437.35c-.08.57-.16,1.15,0-.05-.45,1.12-.23.58,0,0Z"/><path class="cls-1" d="M236.32,648.45a3,3,0,0,1,.67.08A3.83,3.83,0,0,1,236.32,648.45Z"/><path class="cls-1" d="M297.25,563.72a1.93,1.93,0,0,1,.55-.29A1.71,1.71,0,0,1,297.25,563.72Z"/><path class="cls-1" d="M251.57,226.69l2,0,0,0-1.21,1.85-.77-1.84Z"/><path class="cls-1" d="M553.06,417.34c0,.59-.07,1.18,0,.15-.38,1-.16.42.05-.12Z"/><path class="cls-1" d="M352.46,560.19l.07,0c1,.11.42.05-.11,0Z"/><path class="cls-1" d="M472.83,428.15a1.13,1.13,0,0,1-.2.43A1.4,1.4,0,0,1,472.83,428.15Z"/><path class="cls-1" d="M383.59,319.06a1.35,1.35,0,0,1-.45-.22A1.26,1.26,0,0,1,383.59,319.06Z"/><path class="cls-1" d="M498.43,385.63c-.3-.2-.18-.12-.06,0C498.15,385.72,497.93,385.79,498.43,385.63Z"/><path class="cls-1" d="M578.65,391.68a3.6,3.6,0,0,1,.44-.12,5.31,5.31,0,0,1,0,.69C579,392.07,578.8,391.88,578.65,391.68Z"/><path class="cls-1" d="M518.13,493.25l-3,2,0,0,3-2Z"/><path class="cls-1" d="M342.1,378a5.42,5.42,0,0,1,.7-.14c-.09.1-.16.27-.26.29A.89.89,0,0,1,342.1,378Z"/><polygon class="cls-1" points="438.19 541.57 438.54 541.74 438.08 541.79 438.19 541.57"/><path class="cls-1" d="M383.35,554.15c-.49.22-1,.45-.16.07-.89.16-.35.06.19,0Z"/><path class="cls-1" d="M362.42,558.18l4-1,0,0-4,1Z"/><polygon class="cls-1" points="291.7 562.52 291.52 562.78 291.24 562.56 291.7 562.52"/><polygon class="cls-1" points="353.24 569.52 353.66 569.59 353.38 569.74 353.24 569.52"/><path class="cls-1" d="M536.13,591.12c.14-.55.29-1.1,0-.11.41-.93.18-.42,0,.1Z"/><path class="cls-1" d="M213.65,594.12c.5-.22,1-.44.22-.1l-.26.06Z"/><path class="cls-1" d="M533.15,597.14l2-3,0,0c-.67,1-1.35,2-2,3Z"/><path class="cls-1" d="M156.74,629.05l-.17,0c-.94-.36-.4-.15.14.05Z"/><path class="cls-1" d="M232.58,633.08c-.57-.18-1.14-.36.3.09l-.27-.12Z"/><path class="cls-1" d="M456.22,618.1c.57.11,1.15.22.18,0,.9.38.38.16-.15-.07Z"/><path class="cls-1" d="M524.16,624.08l4-1,0,0-4,1Z"/><polygon class="cls-1" points="433.36 626.68 433.01 626.52 433.46 626.47 433.36 626.68"/><path class="cls-1" d="M183.5,632.7a1.33,1.33,0,0,1,.47-.21A1.54,1.54,0,0,1,183.5,632.7Z"/><polygon class="cls-1" points="473.96 632.48 474.38 632.41 474.33 632.64 473.96 632.48"/><path class="cls-1" d="M247.45,633.68a1.49,1.49,0,0,1,.45-.19A1.49,1.49,0,0,1,247.45,633.68Z"/><path class="cls-1" d="M323.75,634.57a5,5,0,0,1-.56.1c.07-.07.13-.19.21-.2A1,1,0,0,1,323.75,634.57Z"/><polygon class="cls-1" points="465.31 638.46 465.41 638.67 464.99 638.61 465.31 638.46"/><path class="cls-1" d="M422.55,640.38a1.71,1.71,0,0,1-.54.27A1.82,1.82,0,0,1,422.55,640.38Z"/><path class="cls-1" d="M464.23,644c-.05-.43-.11-.87,0-.07.27-.75.12-.33,0,.1Z"/><polygon class="cls-1" points="400.42 646.64 400.08 646.5 400.52 646.44 400.42 646.64"/><path class="cls-1" d="M559.06,419.37c-.33,1-.65,2-1,3l0,0c.34-1,.67-2,1-3Z"/><path class="cls-1" d="M459.23,481.28c-.08.31-.17.61,0,.17-.25.39-.08.13.08-.14Z"/><path class="cls-1" d="M287.54,335.5c.07-.31.14-.62,0-.11.23-.48.09-.19-.05.09Z"/><path class="cls-1" d="M452.27,499.25c.07-.3.13-.61,0-.15.23-.41.08-.14-.06.12Z"/><path class="cls-1" d="M264.58,275.56c.32,1,.64,2,1,3l0,0-1-3Z"/><path class="cls-1" d="M545.11,373.43c.29.16.58.31-.08-.05.56.5.31.28.07.07Z"/><path class="cls-1" d="M383.38,554.19l.13-.08-.16,0Z"/><path class="cls-1" d="M157.74,340.48c-.27.15-.53.31-.16.09l.2-.05Z"/><polygon class="cls-1" points="286.55 562.03 286.75 561.79 286.86 562.07 286.55 562.03"/><polygon class="cls-1" points="540.81 370.94 540.51 371.02 540.55 370.78 540.81 370.94"/><polygon class="cls-1" points="197.17 334.09 197.03 333.87 197.32 333.88 197.17 334.09"/><path class="cls-1" d="M571.05,350.49c.27.14.54.28.07,0l0-.06Z"/><path class="cls-1" d="M440.29,367.47c.32-.2.64-.39.13-.09.57-.15.2-.05-.16.05Z"/><polygon class="cls-1" points="375.15 590.72 375.39 590.92 375.09 591.03 375.15 590.72"/><path class="cls-1" d="M366.38,591.13l.13,0c.45.23.17.09-.11,0Z"/><path class="cls-1" d="M535.15,594.14c.33-1,.65-2,1-3h0l-1,3Z"/><path class="cls-1" d="M282.55,353.48l.05-.11-.07.08Z"/><path class="cls-1" d="M255.58,597.11c.36.08.72.15,0,0,.62.3.29.14,0,0Z"/><path class="cls-1" d="M342.48,599.07c-.37-.09-.73-.18-.19-.05-.51-.24-.18-.08.15.08Z"/><polygon class="cls-1" points="520.34 363.84 520.33 363.55 520.57 363.65 520.34 363.84"/><path class="cls-1" d="M342.44,599.1c.1.27.2.54,0,.1v-.13Z"/><path class="cls-1" d="M321.47,601.11l.15-.09-.17.06Z"/><path class="cls-1" d="M517.16,362.46c-.25.19-.49.38,0,0-.6.27-.32.14,0,0Z"/><path class="cls-1" d="M124.8,347.47c-.37-.08-.74-.17-.14,0-.57-.26-.23-.1.12.05Z"/><path class="cls-1" d="M501.2,609.1l.09-.06-.11,0Z"/><path class="cls-1" d="M501.18,609.08l-.12.07.14,0Z"/><path class="cls-1" d="M489.2,613.1l.15-.1-.19,0Z"/><path class="cls-1" d="M551.08,615.07l-3,1,0,0,3-1Z"/><path class="cls-1" d="M259.6,245.6c-.17-.32-.34-.64-.07-.12-.13-.57,0-.21,0,.15Z"/><path class="cls-1" d="M534.16,621.1c.27-.16.54-.33.11-.07l-.14,0Z"/><path class="cls-1" d="M531.12,622.06l3-1,0,0-3,1Z"/><path class="cls-1" d="M528.14,623.08l3-1v0l-3,1Z"/><path class="cls-1" d="M449.27,361.47l3-1,0,0-3,1Z"/><path class="cls-1" d="M514.14,627c-.25.17-.5.34-.11.08l.13,0Z"/><path class="cls-1" d="M497.19,629.06c.24-.13.48-.26.73-.37a7.21,7.21,0,0,1-.74.36Z"/><path class="cls-1" d="M456.26,358.47l3-1,0,0-3,1Z"/><path class="cls-1" d="M120.83,337.51c.11-.3.23-.59,0-.14l-.09.1Z"/><path class="cls-1" d="M516.74,632.85l-2.55.19Z"/><path class="cls-1" d="M509.23,490.29l.25-.18-.3.14Z"/><polygon class="cls-1" points="402.74 320.11 402.82 319.84 403.04 320.03 402.74 320.11"/><path class="cls-1" d="M453.26,640c-.27.15-.55.3-.12.06-.47.12-.16,0,.15,0Z"/><path class="cls-1" d="M131.79,643.05c.28-.16.56-.32.15-.08l-.19,0Z"/><path class="cls-1" d="M583,603.07c-.67.67-1.33,1.34-2,2h0l2-2Z"/><path class="cls-1" d="M282.54,343.49l1-2,0,0-1,2Z"/><path class="cls-1" d="M287.53,230.65l-1-2,0,0,1,2Z"/><path class="cls-1" d="M459.27,481.31l.09-.35c0,.11-.08.21-.13.32Z"/><path class="cls-1" d="M553.09,432.32l-1,2h0l1-2.07Z"/><polygon class="cls-1" points="572.05 419.37 571.91 419.62 572.07 419.38 572.05 419.37"/><path class="cls-1" d="M530.15,446.34l.12-.33-.14.31Z"/><path class="cls-1" d="M260.57,247.63c-.32-.68-.65-1.35-1-2l0,0c.33.67.67,1.33,1,2Z"/><path class="cls-1" d="M260.57,247.63c.33.68.65,1.35,1,2l0,0-1-2Z"/><path class="cls-1" d="M543.86,469.06l-.77.26c.33-.69.67-1.37,1-2.06l0,0C544,467.89,544,468.48,543.86,469.06Z"/><path class="cls-1" d="M256.57,255.62l1,2,0,0c-.33-.68-.65-1.35-1-2Z"/><polygon class="cls-1" points="297.52 257.61 297.36 257.3 297.51 257.62 297.52 257.61"/><path class="cls-1" d="M266.55,260.61l.21.27-.18-.3Z"/><path class="cls-1" d="M536.13,437.33l1-2v0l-1,2Z"/><path class="cls-1" d="M457.25,346.47l-2,1,0,0,2-1Z"/><path class="cls-1" d="M465.24,346.47l-2,1h0l2-1Z"/><polygon class="cls-1" points="124.78 347.49 125.08 347.67 124.8 347.47 124.78 347.49"/><path class="cls-1" d="M271.55,274.6l-.32-.32.33.3Z"/><polygon class="cls-1" points="264.56 275.58 264.42 275.36 264.58 275.56 264.56 275.58"/><path class="cls-1" d="M273.56,282.58l-.22-.29.2.31Z"/><path class="cls-1" d="M501.15,380.44h1l0,0-1,2h0l-.1-1.92Z"/><path class="cls-1" d="M312.49,314.52l-.26.24.29-.21Z"/><path class="cls-1" d="M513.15,496.26l2-1,0,0-2,1Z"/><polygon class="cls-1" points="513.17 496.27 513 496.54 513.15 496.25 513.17 496.27"/><path class="cls-1" d="M452.24,499.22l-.1.35c0-.1.09-.21.13-.32Z"/><path class="cls-1" d="M504.15,503.26l-.31-.15.33.12Z"/><polygon class="cls-1" points="474.22 510.25 474.55 510.04 474.2 510.22 474.22 510.25"/><path class="cls-1" d="M460.21,512.26l-.41-.13.46.08Z"/><path class="cls-1" d="M501.09,380.5l-.44-.13-.45.06h0c.16-.19.33-.37.5-.56l.46.57Z"/><path class="cls-1" d="M445.28,521.22l.14-.32-.17.29Z"/><path class="cls-1" d="M445.25,521.19l-.08.34c0-.1.07-.21.11-.31Z"/><path class="cls-1" d="M420.3,541.18l-2,1,0,0,2-1Z"/><path class="cls-1" d="M571.07,350.47l-.2-.28.18.3Z"/><path class="cls-1" d="M416.32,543.19l2-1,0,0-2,1Z"/><path class="cls-1" d="M429.3,550.18l-.31.24.3-.25Z"/><path class="cls-1" d="M515.17,373.44l2,1,0,.05-1.94-1Z"/><path class="cls-1" d="M362.4,558.15l-.29.28.31-.25Z"/><path class="cls-1" d="M503.17,493.28h-2v0h2Z"/><polygon class="cls-1" points="352.42 560.14 352.07 560.36 352.46 560.19 352.42 560.14"/><polygon class="cls-1" points="558.08 562.16 557.78 561.98 558.09 562.15 558.08 562.16"/><polygon class="cls-1" points="378.38 562.15 378.06 562.36 378.41 562.18 378.38 562.15"/><path class="cls-1" d="M558.09,562.15l2,1,0,0-2-1Z"/><polygon class="cls-1" points="560.11 563.14 560.4 563.35 560.09 563.17 560.11 563.14"/><polygon class="cls-1" points="348.45 568.16 348.82 567.97 348.41 568.13 348.45 568.16"/><polygon class="cls-1" points="509.17 568.16 508.94 568.02 509.19 568.13 509.17 568.16"/><polygon class="cls-1" points="418.33 570.17 418.48 569.8 418.31 570.15 418.33 570.17"/><path class="cls-1" d="M509.19,568.13l2,1h0l-2-1Z"/><path class="cls-1" d="M569.07,427.37l-1,2h0c.32-.67.65-1.33,1-2Z"/><polygon class="cls-1" points="411.33 573.13 411.47 572.89 411.34 573.14 411.33 573.13"/><polygon class="cls-1" points="534.13 576.13 534.28 576.46 534.12 576.14 534.13 576.13"/><path class="cls-1" d="M195.65,580.15l2.06,1,0,0-2-1Z"/><path class="cls-1" d="M200.67,583.12l-2-1,0,0,2,1Z"/><path class="cls-1" d="M202.67,584.12l-2-1,0,0,2,1Z"/><path class="cls-1" d="M202.64,584.15l2,1,0,0-2-1Z"/><path class="cls-1" d="M204.63,585.15l.38.09-.34-.14Z"/><polygon class="cls-1" points="436.3 366.46 435.97 366.65 436.28 366.44 436.3 366.46"/><polygon class="cls-1" points="469.28 352.49 468.96 352.6 469.24 352.45 469.28 352.49"/><polygon class="cls-1" points="209.68 592.09 209.35 591.92 209.64 592.12 209.68 592.09"/><path class="cls-1" d="M381.4,592.13l.26-.28-.3.24Z"/><polygon class="cls-1" points="395.35 592.12 395.66 591.95 395.34 592.11 395.35 592.12"/><path class="cls-1" d="M179.71,321.53l.25-.22-.28.19Z"/><path class="cls-1" d="M209.64,592.12c.21.16.41.31.61.49a6.55,6.55,0,0,1-.61.49l0,0v-1Z"/><path class="cls-1" d="M386.37,596.12l.28-.28-.3.25Z"/><path class="cls-1" d="M255.59,597.1l-.43-.08.42.09Z"/><path class="cls-1" d="M525.09,598.09l2-1h0l-2,1Z"/><polygon class="cls-1" points="510.19 364.44 510.46 364.61 510.17 364.46 510.19 364.44"/><path class="cls-1" d="M553.05,432.28l1-1.92,0,0c-.35.64-.69,1.29-1,1.93Z"/><path class="cls-1" d="M156.74,325.49l-.27.24.31-.19Z"/><path class="cls-1" d="M567.06,412.38l.13-.41-.1.43Z"/><polygon class="cls-1" points="548.1 616.07 547.75 616.31 548.12 616.09 548.1 616.07"/><path class="cls-1" d="M567.09,412.4c-.35.66-.69,1.32-1,2l0,0,1-2Z"/><path class="cls-1" d="M487.2,619.09l.29-.25-.32.21Z"/><polygon class="cls-1" points="474.22 623.08 474.55 622.9 474.2 623.05 474.22 623.08"/><path class="cls-1" d="M239.6,200.7l.21.26-.19-.28Z"/><polygon class="cls-1" points="524.14 624.06 523.82 624.26 524.16 624.08 524.14 624.06"/><polygon class="cls-1" points="514.16 627.07 514.54 626.89 514.14 627.04 514.16 627.07"/><path class="cls-1" d="M241.61,205.68l-.27-.29.25.31Z"/><path class="cls-1" d="M530.13,628.07l.27-.22-.3.19Z"/><path class="cls-1" d="M436.28,366.44l2-1,0,0-2,1Z"/><path class="cls-1" d="M454.23,359.45l-2,1,0,0,2-1Z"/><path class="cls-1" d="M156.71,629.08l.38.12-.35-.16Z"/><polygon class="cls-1" points="551.11 400.4 551.26 400.04 551.07 400.37 551.11 400.4"/><path class="cls-1" d="M454.25,359.47l2-1h0l-2,1Z"/><path class="cls-1" d="M551.07,400.37l-.09.34.13-.31Z"/><path class="cls-1" d="M500.18,631l-.26.22.3-.18Z"/><polygon class="cls-1" points="561.07 414.36 560.85 414.74 561.09 414.38 561.07 414.36"/><polygon class="cls-1" points="243.59 212.68 243.47 212.44 243.61 212.66 243.59 212.68"/><path class="cls-1" d="M495.22,391.45l.07-.36-.12.32Z"/><path class="cls-1" d="M461.24,356.46l-2,1,0,0,2-1Z"/><path class="cls-1" d="M366.39,633l-.28.26.31-.23Z"/><path class="cls-1" d="M546.1,418.37l.12-.38-.11.39Z"/><path class="cls-1" d="M277.53,214.69l.23.28-.2-.3Z"/><path class="cls-1" d="M492.19,638l-.3.25.34-.21Z"/><path class="cls-1" d="M559.11,419.41l.08-.38c0,.11-.08.22-.13.34Z"/><path class="cls-1" d="M251.6,226.66c-.34-.66-.67-1.33-1-2h0c.32.67.65,1.35,1,2Z"/><path class="cls-1" d="M445.27,355.49l.26-.27-.29.22Z"/><path class="cls-1" d="M572.07,419.38l.11-.32c0,.1-.08.21-.13.31Z"/><polygon class="cls-1" points="560.09 341.51 559.82 341.37 560.13 341.47 560.09 341.51"/><path class="cls-1" d="M546.14,465.31l-1,1.05-.05-.05,1.06-1Z"/><path class="cls-1" d="M545.09,466.36l-1,.94,0,0,.95-.95Z"/><path class="cls-1" d="M537.12,469.29h0Z"/><path class="cls-1" d="M537.13,469.3h0Z"/><path class="cls-1" d="M527.14,477.29h0Z"/><path class="cls-1" d="M527.13,477.28h0Z"/><path class="cls-1" d="M525.13,486.27h0Z"/><path class="cls-1" d="M510.14,489.26l0,0Z"/><path class="cls-1" d="M500.2,380.43h0Z"/><path class="cls-1" d="M509.18,490.25l1-1,0,0c-.31.34-.63.67-.94,1Z"/><path class="cls-1" d="M520.16,491.27l0,0Z"/><path class="cls-1" d="M520.14,491.25l-1,1,0,0,1-1Z"/><path class="cls-1" d="M503.16,493.26v0Z"/><path class="cls-1" d="M518.16,493.28l1-1,0,0c-.34.34-.67.68-1,1Z"/><path class="cls-1" d="M497.19,501.25h0Z"/><path class="cls-1" d="M497.18,501.25h0Z"/><path class="cls-1" d="M503.16,379.43l-1,1,0,0,1-1Z"/><path class="cls-1" d="M504.17,378.42l-1,1,0,0,1-1Z"/><path class="cls-1" d="M484.2,507.23l0,0Z"/><path class="cls-1" d="M451.25,508.23l0,0Z"/><path class="cls-1" d="M466.24,511.24h0Z"/><path class="cls-1" d="M273.57,126.8l0,0Z"/><path class="cls-1" d="M163.72,531.22l0,0Z"/><path class="cls-1" d="M163.74,531.2a2.54,2.54,0,0,1,0,1l0,0,0-1Z"/><path class="cls-1" d="M163.72,532.19l0,0Z"/><path class="cls-1" d="M165.74,537.19l0,0Z"/><path class="cls-1" d="M171.64,537.35c0,.21,0,.43,0,.65A.91.91,0,0,1,171.64,537.35Z"/><path class="cls-1" d="M420.32,541.2l0,0Z"/><path class="cls-1" d="M530.14,543.18l0,0Z"/><path class="cls-1" d="M416.31,543.18h0Z"/><path class="cls-1" d="M413.33,552.18h0Z"/><path class="cls-1" d="M413.33,555.18l0,0Z"/><path class="cls-1" d="M413.31,555.16l0,0Z"/><path class="cls-1" d="M545.1,373.45l-1-1h0l1,1Z"/><path class="cls-1" d="M515.15,373.45h0Z"/><path class="cls-1" d="M175.72,558.16h0Z"/><path class="cls-1" d="M544.11,372.46h0Z"/><path class="cls-1" d="M390.37,559.17l0,0Z"/><path class="cls-1" d="M278.55,208.68l0,0Z"/><path class="cls-1" d="M277.56,214.67l0,0Z"/><path class="cls-1" d="M246.59,218.66h0Z"/><path class="cls-1" d="M249.59,223.71l0,0Z"/><path class="cls-1" d="M524.15,567.14l0,0Z"/><path class="cls-1" d="M337.47,568.13l0,0Z"/><path class="cls-1" d="M249.64,223.67l1,1h0l-1-.95Z"/><path class="cls-1" d="M520.13,369.43l0,0Z"/><path class="cls-1" d="M348.41,568.13l0,0Z"/><path class="cls-1" d="M284.52,226.72l0,0Z"/><path class="cls-1" d="M285.53,227.67l-1-.95,0,0,1,1Z"/><path class="cls-1" d="M511.17,569.14h0Z"/><path class="cls-1" d="M583,569.16l1,1h0l-1-1Z"/><path class="cls-1" d="M585.05,571.14l-1-1h0l1,1Z"/><path class="cls-1" d="M285.54,227.65l1,1,0,0-1-1Z"/><path class="cls-1" d="M585,571.15h0Z"/><path class="cls-1" d="M12.11,573.92l.07-.36Z"/><path class="cls-1" d="M411.34,573.14h0Z"/><path class="cls-1" d="M532.11,574.2l-1-1,0,0,1,1Z"/><path class="cls-1" d="M532.15,574.16l1,1,0,0-1-1Z"/><path class="cls-1" d="M534.12,576.14l-1-1,0,0,1,1Z"/><path class="cls-1" d="M197.71,581.11l1,1,0,0-1-1Z"/><path class="cls-1" d="M401.35,582.13h0Z"/><path class="cls-1" d="M287.52,230.66h0Z"/><path class="cls-1" d="M401.34,582.12l-1,1h0l1-1Z"/><path class="cls-1" d="M254.58,233.66h0Z"/><path class="cls-1" d="M400.34,583.13h0Z"/><path class="cls-1" d="M282.53,233.66v0Z"/><path class="cls-1" d="M250.59,248.62l-1-1,0,0,.93,1Z"/><path class="cls-1" d="M250.59,248.61h0Z"/><path class="cls-1" d="M297.51,257.62h0Z"/><path class="cls-1" d="M257.59,265.61l0,0Z"/><path class="cls-1" d="M381.36,592.09l0,0Z"/><path class="cls-1" d="M390.37,594.11h0Z"/><path class="cls-1" d="M271.56,274.58v0Z"/><path class="cls-1" d="M275.55,291.56h0Z"/><path class="cls-1" d="M527.13,597.1h0Z"/><path class="cls-1" d="M377.37,598.1h0Z"/><path class="cls-1" d="M524.07,599.1l1-1,0,0-1,1Z"/><path class="cls-1" d="M580,599.1l0,0Z"/><path class="cls-1" d="M241.59,205.7l0,0Z"/><path class="cls-1" d="M523.15,600.09l.92-1,0,0-1,1Z"/><path class="cls-1" d="M580,599.14l-1,1v0l.93-1Z"/><path class="cls-1" d="M293.54,321.54l0-.05Z"/><path class="cls-1" d="M293.5,321.49l0,.05Z"/><path class="cls-1" d="M523.15,600.09Z"/><path class="cls-1" d="M578,601.09l1-1v0l-1,1Z"/><path class="cls-1" d="M408.34,325.5l0,0Z"/><path class="cls-1" d="M577,602.1l1-1,0,0c-.33.35-.67.69-1,1Z"/><path class="cls-1" d="M577.06,602.14l-1,1h0l1-1Z"/><path class="cls-1" d="M576.08,603.1h0Z"/><path class="cls-1" d="M344.45,335.49l0,0Z"/><path class="cls-1" d="M517.15,362.45h0Z"/><path class="cls-1" d="M551.11,615.09l0,0Z"/><path class="cls-1" d="M286.54,336.52l1-1,0,0-1,1Z"/><path class="cls-1" d="M344.42,335.51l0,0Z"/><path class="cls-1" d="M119.82,338.52l1-1,0,0-1,1Z"/><path class="cls-1" d="M275.54,361.45v0Z"/><path class="cls-1" d="M125.79,339.48h0Z"/><path class="cls-1" d="M523.15,481.29l0,0Z"/><path class="cls-1" d="M125.81,339.49h0Z"/><path class="cls-1" d="M283.55,341.51l1-1,0,0-1,1Z"/><path class="cls-1" d="M276.54,360.46l-1,1v0l1-1Z"/><path class="cls-1" d="M560.13,341.47c.31.35.63.69.94,1l0,0-1-1Z"/><path class="cls-1" d="M282.53,343.48h0Z"/><path class="cls-1" d="M566.09,345.53l0,0Z"/><path class="cls-1" d="M287.53,346.48Z"/><path class="cls-1" d="M567.07,346.53l-1-1,0,0,1,1Z"/><path class="cls-1" d="M154.73,346.46l0,0Z"/><path class="cls-1" d="M287.53,346.48Z"/><path class="cls-1" d="M568.07,347.47l-1-.94,0,0,1,1Z"/><path class="cls-1" d="M463.25,347.48h0Z"/><path class="cls-1" d="M568.07,347.47Z"/><path class="cls-1" d="M276.55,360.47h0Z"/><path class="cls-1" d="M470.22,351.46l-.94,1,0,0,1-1Z"/><path class="cls-1" d="M578.05,405.38l-1,1,0,0,1-1Z"/><path class="cls-1" d="M577,406.37l0,0Z"/><path class="cls-1" d="M546.11,418.38h0Z"/><path class="cls-1" d="M575.07,357.45l0,0Z"/><path class="cls-1" d="M569.06,427.36h0Z"/><path class="cls-1" d="M568.06,429.35h0Z"/><path class="cls-1" d="M501.19,382.42Z"/><path class="cls-1" d="M539.11,433.33c-.33.35-.66.69-1,1l0,0c.35-.32.69-.65,1-1Z"/><path class="cls-1" d="M461.25,356.47h0Z"/><path class="cls-1" d="M538.13,434.37l-1,1v0l1-1Z"/><path class="cls-1" d="M552.1,434.35h0Z"/><path class="cls-1" d="M472.22,404.41l0,0Z"/><path class="cls-1" d="M280.54,355.47Z"/><path class="cls-1" d="M536.14,437.35v0Z"/><path class="cls-1" d="M550.1,438.35h0Z"/><path class="cls-1" d="M530.13,446.32c-.33.33-.65.67-1,1h0l1-1Z"/><path class="cls-1" d="M529.16,447.33h0Z"/><path class="cls-1" d="M523.14,453.31h0Z"/><path class="cls-1" d="M573.08,354.47h0Z"/><path class="cls-1" d="M281.52,354.46l-1,1h0l1-1Z"/><path class="cls-1" d="M573.06,354.48h0Z"/><path class="cls-1" d="M547.08,464.31l0,0Z"/><path class="cls-1" d="M281.55,354.49l1-1,0,0c-.34.34-.67.68-1,1Z"/><path class="cls-1" d="M547.12,464.35l-1,1,0,0,1-1Z"/><path class="cls-1" d="M581,605.09h0Z"/><path class="cls-1" d="M356.42,55.92c14.52,27.39-.15,50-12.11,73-1.21,2.34-2.58,4.61-3.88,6.9l0,0-3,1,0,0q4.35-8.72,8.68-17.43c-17.78,26.84-23.47,56.79-21.22,88.8-19.19-18.46-15.59-65.68,7.55-104.35l0,0c15-23.22,16.51-46.84,2-70.91l0,0c0-.36,0-.72,0-1.09l0,0-3-4h0c11.43,6.54,18.74,16.76,25,28Z"/><path class="cls-1" d="M320.46,23l-.63-1.26c-.77-.92-1.55-1.84-2.32-2.77l0,0c10.88,1.64,13,11.17,17,19l0,0-1.72.59Q326.62,30.74,320.46,23Z"/><path class="cls-1" d="M328.46,197.71c-3.72-7.41-2-14.28,2-20.94l0,0-2,21Z"/><path class="cls-1" d="M328.46,197.7q1.38,7.16,2.75,14.31l-2.75.24V197.71Z"/><path class="cls-1" d="M307.28,162.56l2-15.14,1.09.17q-1.06,7.56-2.12,15.12Z"/><path class="cls-1" d="M334.44,155.76l-2.73,14.32-1.65-.44q2.22-6.93,4.42-13.84Z"/><path class="cls-1" d="M349.42,131.8l-3.84,11.78-1.22-.49q2.53-5.62,5.08-11.27Z"/><path class="cls-1" d="M308.18,185.46l-1.62-9.86.63-.1,2,9.79Z"/><path class="cls-1" d="M339.35,167.53v-4.12h.58v4.11Z"/><path class="cls-1" d="M311.48,206.7l4,7,.05,0-4-7Z"/><path class="cls-1" d="M328,106.72Z"/><path class="cls-1" d="M336.48,41.9l-2-4,0,0,2,4Z"/><path class="cls-1" d="M352.43,126.82l2-5h0l-2,5Z"/><path class="cls-1" d="M313.55,204.33h0C318.72,208.71,318.45,208.47,313.55,204.33Z"/><path class="cls-1" d="M321.47,220.67c-.77-.33-1.54-.67,0,0-1.28-1.1-.64-.55,0,0Z"/><path class="cls-1" d="M341.76,155.12c0,.24,0,.47-.05.7l-.56-.35A6,6,0,0,1,341.76,155.12Z"/><path class="cls-1" d="M305.23,170.48Z"/><path class="cls-1" d="M358.87,115.43c1.9-6.83,2-7.2,0,0C361.18,108.31,361.05,108.69,358.87,115.43Z"/><path class="cls-1" d="M357.43,118.8h-1l0,0c.23-.51.46-1,1.58-3.55-.46,2.61-.55,3.08-.63,3.55Z"/><path class="cls-1" d="M317.51,19c-.48-.22-1-.43-.13-.05-.67-.63-.29-.27.1.08Z"/><path class="cls-1" d="M334.48,155.8c.1-.56.19-1.13,0-.21.38-.84.15-.34-.09.17Z"/><path class="cls-1" d="M338.46,141.79c.14-.57.28-1.14,0-.17.49-.87.21-.37-.08.13Z"/><path class="cls-1" d="M339.46,51.91c-.34-1.33-.67-2.66-1-4l0,0,1,4Z"/><path class="cls-1" d="M339.43,51.93c.22.52.44,1,0,.08.15,1,.07.47,0-.1Z"/><path class="cls-1" d="M344.45,228.64c-.42-.38-.84-.76-.08-.08-.47-.91-.21-.4.05.1Z"/><path class="cls-1" d="M315.46,213.69c.38.4.76.79.12.13.37.84.15.33-.07-.17Z"/><path class="cls-1" d="M365.89,98.21a3.7,3.7,0,0,1,.07-.66A3,3,0,0,1,365.89,98.21Z"/><path class="cls-1" d="M336.81,182.06a3.16,3.16,0,0,1,.08-.68A3.08,3.08,0,0,1,336.81,182.06Z"/><path class="cls-1" d="M336.45,138.79c-.08.32-.17.63,0-.06-.31.64-.17.35,0,.06Z"/><path class="cls-1" d="M349.44,239.64c.09-.31.18-.62,0-.13.26-.44.1-.16-.06.11Z"/><path class="cls-1" d="M330.49,176.77c.05-.31.11-.62,0-.17.21-.41.07-.13-.07.14Z"/><polygon class="cls-1" points="336.14 192.85 336.48 192.83 336.35 193.12 336.14 192.85"/><path class="cls-1" d="M338.44,239.66c.29.11.58.22.16.07.33.28.11.09-.12-.11Z"/><path class="cls-1" d="M336.43,41.94c.34,1,.68,2,1,3l0,0-1-3Z"/><path class="cls-1" d="M337.44,44.93c.33,1,.65,2,1,3l0,0-1-3Z"/><path class="cls-1" d="M337.43,143.78c-.09.36-.19.71,0,.15-.3.5-.11.19.08-.12Z"/><path class="cls-1" d="M322.46,115.83c0,.32-.1.64,0,.1-.24.49-.1.21.05-.08Z"/><path class="cls-1" d="M345.42,230.66c-.32-.68-.64-1.35-1-2l0,0,1,2Z"/><path class="cls-1" d="M338.48,239.62l-.38-.11.34.15Z"/><path class="cls-1" d="M349.41,239.62l-1,2,0,0,1-2Z"/><path class="cls-1" d="M348.43,241.63l-.29.24.31-.22Z"/><polygon class="cls-1" points="340.43 135.78 340.22 136.13 340.45 135.8 340.43 135.78"/><polygon class="cls-1" points="363.4 103.85 363.55 103.62 363.42 103.88 363.4 103.85"/><polygon class="cls-1" points="363.42 103.88 363.25 104.13 363.4 103.85 363.42 103.88"/><polygon class="cls-1" points="322.49 115.85 322.7 115.51 322.46 115.83 322.49 115.85"/><path class="cls-1" d="M355.44,119.83l-1,2h0l1-2Z"/><path class="cls-1" d="M350.42,129.8c-.34.66-.67,1.33-1,2l0,0c.33-.67.67-1.33,1-2Z"/><path class="cls-1" d="M336.44,138.79l1-2,0,0c-.32.68-.64,1.36-1,2Z"/><path class="cls-1" d="M338.42,141.75l-1,2,0,0,1-2Z"/><path class="cls-1" d="M318.46,203.75l0,0Z"/><polygon class="cls-1" points="326.46 212.69 326.31 212.36 326.47 212.68 326.46 212.69"/><path class="cls-1" d="M326.46,218.69l.25.27-.23-.29Z"/><path class="cls-1" d="M312.5,17h0Z"/><path class="cls-1" d="M331.45,28h0Z"/><path class="cls-1" d="M334.47,33v-1l0,0c0,.37,0,.73,0,1.09Z"/><path class="cls-1" d="M328.47,103.85v0Z"/><path class="cls-1" d="M328.46,103.83l-1,1h0l1-1Z"/><path class="cls-1" d="M327.48,104.84Z"/><path class="cls-1" d="M355.41,119.8l1-1,0,0-1,1Z"/><path class="cls-1" d="M357.39,118.83l1,1,0,0-1-1Z"/><path class="cls-1" d="M352.41,126.8l0,0Z"/><path class="cls-1" d="M350.44,129.82l0,0Z"/><path class="cls-1" d="M316.47,196.71v0Z"/><path class="cls-1" d="M338.43,195.68l0,0Z"/><path class="cls-1" d="M316.48,196.69v0Z"/><path class="cls-1" d="M319.47,204.7l-1-.95,0,0,1,1Z"/><path class="cls-1" d="M319.48,204.69h0Z"/><path class="cls-1" d="M326.47,212.68h0Z"/><path class="cls-1" d="M325.48,217.65l0,0Z"/><path class="cls-1" d="M326.48,218.67l-1-1,0,0c.33.34.67.68,1,1Z"/><path class="cls-1" d="M321.47,220.67l1,1h0l-1-1Z"/><path class="cls-1" d="M322.47,221.67Z"/><path class="cls-1" d="M330.45,223.67v0Z"/><path class="cls-1" d="M330.46,223.65v0Z"/><path class="cls-1" d="M345.44,230.65h0Z"/><path class="cls-1" d="M311.5,206.68l0,0Z"/><path class="cls-1" d="M116.82,399.4l-.23-.26.19.3Z"/><path class="cls-1" d="M323.51,29h0Z"/><path class="cls-1" d="M324.51,30h-1.06v-1Z"/><path class="cls-1" d="M324.5,30.88a6.31,6.31,0,0,1-.05-1C324.47,30.23,324.48,30.56,324.5,30.88Z"/><path d="M302.51,378.41h-.21l.17,0Z"/><path d="M302.47,378.46l.47.09-.43-.14Z"/><path d="M281.53,361.47l0,0Z"/><path d="M528.16,470.28l0,0Z"/><path d="M513.15,471.3h0Z"/><path d="M536.14,357.49l0,0Z"/><path d="M493.21,384.41l0,0Z"/><path d="M526.12,460.32l0,0Z"/><path d="M242.58,163.81l4.44-6.1c-2.09,5.29-3,7.67-6.45,16.3,1.56-7.79,1.81-9,2.06-10.27Z"/><path d="M238,190.49c2.22-6.52,1.93-5.65,0,0Z"/><path d="M266.58,136.78l0,0Z"/><path d="M256.59,229.67l0,0Z"/><path d="M257.59,231.67l0,0Z"/><path d="M204.67,327.52v0Z"/><path d="M414.33,645c-.81-.06-1.62-.12-.05,0-1.43-.64-.7-.31,0,0Z"/><path d="M334.44,33c0-.36,0-.72,0-1.09C334.43,32.27,334.44,32.63,334.44,33Z"/><path d="M356.42,55.92h0Z"/><path d="M332.43,103.86l0,0Z"/></g></g></svg>